<?xml version="1.0" encoding="UTF-8"?>
<svg id="_レイヤー_2" data-name="レイヤー_2" xmlns="http://www.w3.org/2000/svg" viewBox="0 0 147.15 100.85">
  <defs>
    <style>
      .cls-1 {
        fill: #dcdb88;
      }

      .cls-2 {
        fill: #a29928;
      }

      .cls-3 {
        fill: #d1cb6f;
      }

      .cls-4 {
        fill: #988c21;
      }

      .cls-5 {
        fill: #d0ce72;
      }

      .cls-6 {
        fill: #e6e3aa;
      }

      .cls-7 {
        fill: #837a22;
      }

      .cls-8 {
        fill: #cdcc78;
      }

      .cls-9 {
        fill: #cfca54;
      }

      .cls-10 {
        fill: #776718;
      }

      .cls-11 {
        fill: #a29825;
      }

      .cls-12 {
        fill: #e5e49c;
      }

      .cls-13 {
        fill: #e9e5ca;
      }

      .cls-14 {
        fill: #d9d79a;
      }

      .cls-15 {
        fill: #b4aa3d;
      }

      .cls-16 {
        fill: #dedb8a;
      }

      .cls-17 {
        fill: #b0a430;
      }

      .cls-18 {
        fill: #998f28;
      }

      .cls-19 {
        fill: #9d8d29;
      }

      .cls-20 {
        fill: #938526;
      }

      .cls-21 {
        fill: #d6d59e;
      }

      .cls-22 {
        fill: #b1a52a;
      }

      .cls-23 {
        fill: #b1a933;
      }

      .cls-24 {
        fill: #b1a82e;
      }

      .cls-25 {
        fill: #cecb6a;
      }

      .cls-26 {
        fill: #beb849;
      }

      .cls-27 {
        fill: #7b6820;
      }

      .cls-28 {
        fill: #dcd989;
      }

      .cls-29 {
        fill: #d3cf78;
      }

      .cls-30 {
        fill: #c6bd43;
      }

      .cls-31 {
        fill: #766d15;
      }

      .cls-32 {
        fill: #c3ba48;
      }

      .cls-33 {
        fill: #dbd785;
      }

      .cls-34 {
        fill: #c3bf5f;
      }

      .cls-35 {
        fill: #d7d47f;
      }

      .cls-36 {
        fill: #a69c24;
      }

      .cls-37 {
        fill: #aaa228;
      }

      .cls-38 {
        fill: #b0a62f;
      }

      .cls-39 {
        fill: #d3ce6e;
      }

      .cls-40 {
        fill: #9a872d;
      }

      .cls-41 {
        fill: #84731d;
      }

      .cls-42 {
        fill: #c1b848;
      }

      .cls-43 {
        fill: #857620;
      }

      .cls-44 {
        fill: #6b5d11;
      }

      .cls-45 {
        fill: #c6ba4f;
      }

      .cls-46 {
        fill: #aba130;
      }

      .cls-47 {
        fill: #e9ecba;
      }

      .cls-48 {
        fill: #afa84e;
      }

      .cls-49 {
        fill: #d1cc8c;
      }

      .cls-50 {
        fill: #e4e399;
      }

      .cls-51 {
        fill: #b2a831;
      }

      .cls-52 {
        fill: #a09223;
      }

      .cls-53 {
        fill: #e5e29c;
      }

      .cls-54 {
        fill: #e7e795;
      }

      .cls-55 {
        fill: #998f20;
      }

      .cls-56 {
        fill: #b9b144;
      }

      .cls-57 {
        fill: #cbcb52;
      }

      .cls-58 {
        fill: #ded9ad;
      }

      .cls-59 {
        fill: #cec75a;
      }

      .cls-60 {
        fill: #bdb443;
      }

      .cls-61 {
        fill: #9e9324;
      }

      .cls-62 {
        fill: #706512;
      }

      .cls-63 {
        fill: #bdb73b;
      }

      .cls-64 {
        fill: #8d801f;
      }

      .cls-65 {
        fill: #ddd983;
      }

      .cls-66 {
        fill: #9d9023;
      }

      .cls-67 {
        fill: #b4ae4d;
      }

      .cls-68 {
        fill: #6e5c16;
      }

      .cls-69 {
        fill: #ccd56c;
      }

      .cls-70 {
        fill: #e5e28e;
      }

      .cls-71 {
        fill: #9b9317;
      }

      .cls-72 {
        fill: #7c6c18;
      }

      .cls-73 {
        fill: #afaa23;
      }

      .cls-74 {
        fill: #8c8415;
      }

      .cls-75 {
        fill: #b7ad34;
      }

      .cls-76 {
        fill: #b8b13c;
      }

      .cls-77 {
        fill: #e5e08f;
      }

      .cls-78 {
        fill: #614d10;
      }

      .cls-79 {
        fill: #e0dc99;
      }

      .cls-80 {
        fill: #9c9026;
      }

      .cls-81 {
        fill: #f1ee8e;
      }

      .cls-82 {
        fill: #c3c053;
      }

      .cls-83 {
        fill: #807720;
      }

      .cls-84 {
        fill: #ccca6a;
      }

      .cls-85 {
        fill: #a39b28;
      }

      .cls-86 {
        fill: #d8d798;
      }

      .cls-87 {
        fill: #e0dd8d;
      }

      .cls-88 {
        fill: #71672f;
      }

      .cls-89 {
        fill: #bfb95b;
      }

      .cls-90 {
        fill: #7a6d1a;
      }

      .cls-91 {
        fill: #c5be5a;
      }

      .cls-92 {
        fill: #ddde8c;
      }

      .cls-93 {
        fill: #998837;
      }

      .cls-94 {
        fill: #8d8125;
      }

      .cls-95 {
        fill: #dedba9;
      }

      .cls-96 {
        fill: #877a19;
      }

      .cls-97 {
        fill: #d7d27b;
      }

      .cls-98 {
        fill: #968622;
      }

      .cls-99 {
        fill: #918122;
      }

      .cls-100 {
        fill: #8b7f24;
      }

      .cls-101 {
        fill: #b7ae37;
      }

      .cls-102 {
        fill: #c3be50;
      }

      .cls-103 {
        fill: #ada32a;
      }

      .cls-104 {
        fill: #796c14;
      }

      .cls-105 {
        fill: #bdb33d;
      }

      .cls-106 {
        fill: #d7d477;
      }

      .cls-107 {
        fill: #dad884;
      }

      .cls-108 {
        fill: #998d1f;
      }

      .cls-109 {
        fill: #a69928;
      }

      .cls-110 {
        fill: #615116;
      }

      .cls-111 {
        fill: #a29427;
      }

      .cls-112 {
        fill: #e9e69f;
      }

      .cls-113 {
        fill: #978b2c;
      }

      .cls-114 {
        fill: #aca22c;
      }

      .cls-115 {
        fill: #ddda83;
      }

      .cls-116 {
        fill: #988c28;
      }

      .cls-117 {
        opacity: .5;
      }

      .cls-118 {
        fill: #c9c766;
      }

      .cls-119 {
        fill: #98891b;
      }

      .cls-120 {
        fill: #dee0a6;
      }

      .cls-121 {
        fill: #968d22;
      }

      .cls-122 {
        fill: #beb34f;
      }

      .cls-123 {
        fill: #e8e9a2;
      }

      .cls-124 {
        fill: #695323;
      }

      .cls-125 {
        fill: #d2cd6d;
      }
    </style>
  </defs>
  <g id="TOP_x5F_PC">
    <g id="_ランチ" data-name="ランチ">
      <g>
        <g class="cls-117">
          <path class="cls-37" d="M33.41,5.69c1.11.32,2.22.64,3.34.96,1.12,1.51,3.13,2.21,3.78,4.14-.07.35-.29.58-.63.7-1.08-.03-2.13-.56-3.23-.15-.58.28-.79.84-1.03,1.38-.28.43-.67.71-1.17.83-.34-.03-.65-.14-.93-.33-.7-.64-1.34-1.43-2.48-1.11-.34.07-.68.11-1.02.15-1.63.19-2.81-.41-3.43-1.98-.12-.58.1-1.04.5-1.43.27-.2.58-.33.92-.4,1.08-.09,2.21-.02,3.02-.96.68-.74.62-2.46,2.35-1.79Z"/>
          <path class="cls-6" d="M18.38,49.7c-1.69-1.31-4.13-1.47-5.4-3.45.43-1.77,2.04-1.25,3.18-1.63,2.07-.26,4.13-.39,6.12.49.88.5,1.53,1.2,1.88,2.16.2.77.14,1.5-.26,2.2-1.8.99-3.69-.05-5.52.24Z"/>
          <path class="cls-14" d="M.71,19.48C-.3,15.28-.87,10.87,3.58,8.45c2.95-1.61,6.04-3.08,9.07-4.6.08.62-.15,1.14-.49,1.63-.33.46-.73.87-1.16,1.24-2.19,1.58-4.24,3.36-6.48,4.87-1.39.94-2.23,2.09-2.2,3.8,0,1.09.13,2.18-.29,3.23-.3.51-.73.82-1.33.85Z"/>
          <path class="cls-120" d="M35.6,12.25c-.64-.79-1.23-1.57.52-1.6,1.25.27,2.54.34,3.8.61h0c.44-.01.91-.22,1.3.18,1.38,2.58,1.47,5.53,2.35,8.26-1.12.25-1.97-.23-2.74-.97-.21-.26-.37-.56-.49-.87-.28-.76-.39-1.57-.84-2.26-.93-1.02-2.4-1.08-3.41-1.95-.4-.38-.66-.81-.49-1.39Z"/>
          <path class="cls-49" d="M45.02,30.3c.16-1.74-.83-2.71-.13-4.07,0-.13.01-.27.02-.4.05-.32.16-.62.3-.9l-.11-.91c-.09-.18-.16-.38-.21-.59-.88-.91-.88-1.63-.86-3.17-.13-.2-.28-.38-.45-.56-.91-.58-1.82-1.16-2.74-1.74-1.47,1.26-.02,2.57-.07,3.86.16.68.32,1.35.52,2.01.35,1.33,1.09,2.54,1.22,3.93.3,1.52-.34,3.43,1.73,4.23.58-.09.5-1.19.78-1.69Z"/>
          <path class="cls-91" d="M16.3,45.25c-1.1.34-2.21.67-3.31,1.01-3.65-.8-4.78-4.02-6.45-6.73.11-.98.74-1.23,1.61-1.13,1.27.73,2.06,1.91,2.91,3.04.21.49-.47,1.51.97,1.29,1.12-.18,2.34-.15,3.37.58.59.51,1.01,1.1.9,1.94Z"/>
          <path class="cls-98" d="M.78,23.43c-.44-1.17,0-2.28.22-3.41.95-.68,1.86-1.52,3.18-.97,1.45,1.09,2.78,2.76,4.87,1.1.84.45,1.05,1.14.81,2.02-.42,1.01-1.16,1.72-2.05,2.31-1.32.72-2.65.84-3.99.09-.63-1.36-1.92-1.03-3.03-1.14Z"/>
          <path class="cls-94" d="M33.41,5.69c-1.69.17-.53,2.08-1.61,2.63-1.53.02-1.86-1.32-2.52-2.22-.35-.33.27-.37-.21-.18-.25.1-.18.4.08.58.03,1-.12,1.9-1.23,2.26l-.04.06c-1.28-.15-2.11-.91-2.73-1.97-.28-.51-.45-1.05-.51-1.62-.02-.37.03-.73.15-1.08,1.14-.88,2.6-.92,3.88-1.43,1.84.58,3.67,1.18,4.75,2.98Z"/>
          <path class="cls-47" d="M18.38,49.7c1.27-.53,2.78-.7,3.06-2.17,1.88-.3-.95,3.12,1.89,1.8,1.81.27,2.04,1.45,1.74,2.96-.85.8,1.37,1.4-.28,1.78-1.7-1.84-4.7-2.52-6.4-4.36Z"/>
          <path class="cls-18" d="M28.66,2.71c-.67,2.12-2.41,1.51-3.9,1.52-.17.02-.34.03-.52.06-1.45-.53-3.03-.83-3.96-2.28.04-.36.17-.68.41-.95,1.36-.75,2.73-.38,4.09-.02,1.41.29,2.86.48,3.87,1.67Z"/>
          <path class="cls-23" d="M20.97,1.39c-.18.2-.37.39-.55.59-.15,1.19-1.14,1.38-2.01,1.7-2.25.25-4.18,2.17-6.65,1.33.3-.39.59-.78.89-1.17,1.81-1.9,3.67-3.7,6.63-3.23.57.25,1.47-.23,1.69.77Z"/>
          <path class="cls-83" d="M.78,23.43c.85-.53,1.52-1.61,2.67-1.18.28.1.21,1.13.31,1.73,0,1.39,1.37,2.49.83,3.99-.63.83-1.48.89-2.4.67-.93-1.61-1.75-3.25-1.41-5.21Z"/>
          <path class="cls-113" d="M3.91,35.62c-1.11-1.33-.69-2.98-.95-4.49.65-.08,1.2.17,1.72.54.66.52,1.19,1.15,1.61,1.88.5,1.18,1.05,2.36-.07,3.51-1.4.52-1.85-.47-2.31-1.44Z"/>
          <path class="cls-7" d="M3.94,19.6c-.98.14-1.96.28-2.94.42-.19-.13-.29-.31-.29-.54.27-.35.54-.7.81-1.05.51-1.01,1.79-1.3,2.23-2.38.23-.26.5-.45.81-.58.54-.1,1.03-.02,1.47.32.59.99.55,2.03.26,3.09-.56,1-1.43.93-2.36.72Z"/>
          <path class="cls-88" d="M4.14,32.2c-.39-.36-.79-.72-1.18-1.08-.26-.83-.52-1.66-.77-2.49.67-.26,1.34-.52,2.01-.78.84.22.85.92.92,1.58-.3.93.82,2.36-.97,2.76Z"/>
          <path class="cls-67" d="M41.22,11.44c-.43-.06-.87-.12-1.3-.18.29-2.47-3.35-2.23-3.17-4.61,2.35.8,3.86,2.38,4.47,4.79Z"/>
          <path class="cls-48" d="M20.97,1.39c-.56-.26-1.13-.51-1.69-.77,1.92-.95,3.75-.82,5.51.41-1.27.12-2.55.24-3.82.36Z"/>
          <path class="cls-62" d="M8.27,38.91c-.74-.25-1.24.17-1.73.61-.13-.22-.26-.44-.39-.67-.28-.8-.19-1.51.48-2.1,1.86-1.24,2.38-.24,2.49,1.47-.12.43-.4.65-.84.67Z"/>
          <path class="cls-91" d="M6.52,37.26c-.12.54-.25,1.07-.37,1.6-.94-.95-2.23-1.65-2.24-3.25.74.36,1.16,1.35,2.2,1.15.46-.11.62.04.41.49Z"/>
          <path class="cls-26" d="M40.84,17.96c-.27,1.34,1.29,2.47.44,3.88-.14.11-.27.23-.4.34-2.54.97-2.81-1.33-3.77-2.62-.73-1.3-2.37-1.05-3.35-1.93-.36-1.52-1.37-.09-2-.42-4.6.88-3.02-2.29-2.93-4.48.47-.54.97-1.06,1.74-1.15h0c1.41-.47,2.26.56,3.24,1.23.19.17.38.34.56.52,1.22.46,1.98,1.84,3.49,1.73.54.11,1.06.23,1.53.54.65.68,1.23,1.4,1.45,2.35h0Z"/>
          <path class="cls-56" d="M30.56,11.57c-.57.54-1.13,1.08-1.7,1.62-.62,1.3-.62,3.05-2.53,3.4-1.87-.62-1.8-2.46-2.43-3.86-.13-.33-.22-.66-.28-1.01-.12-1.56.67-2.21,2.17-2.14.34.01.67.1.97.25.94,1.27,2.15,1.98,3.79,1.74Z"/>
          <path class="cls-31" d="M27.92,8.76c.24-.91.49-1.81.73-2.72-.1-.3-.07-.48.1-.54.18-.06.3-.06.36,0,1.88,0,1.36,2.29,2.69,2.82-1.22.79-2.44,1.66-3.89.44Z"/>
          <path class="cls-56" d="M37.63,15.62c-2.14.74-2.85-.57-3.27-2.29.41-.36.83-.72,1.24-1.08.45.35.9.69,1.35,1.04.62.66,1.17,1.35.68,2.33Z"/>
          <path class="cls-71" d="M26.78,9.83c-.2.16-.41.31-.61.47-1.89-1.11-2.29-2.55-.93-4.36.88.96,1.76,1.91,2.64,2.87-.37.34-.73.68-1.1,1.02Z"/>
          <path class="cls-56" d="M33.8,12.81c-1.08-.41-2.16-.82-3.24-1.23,1.72-1.27,2.79-.82,3.24,1.23Z"/>
          <path class="cls-67" d="M39.92,11.26c-1.37.47-2.69.6-3.8-.61,1.38-.49,2.74-.89,3.8.61Z"/>
          <path class="cls-35" d="M16.3,45.25c-.52-.56-1.04-1.12-1.56-1.68-.01-.36.12-.67.38-.92,1.81-1.21,1.33-2.43.02-3.66.08-1.24-.33-2.49.1-3.72,1.15-.7,2.44-.41,3.68-.5,1.13.23,2.58-.7,3.32.93-.9,1.94-.12,3.7.61,5.46.38,1.6,1.31,3.33-1.04,4.25-1.84-.06-3.67-.11-5.51-.17Z"/>
          <path class="cls-92" d="M21.81,45.42c.9-1.44.95-2.9.14-4.39.99-.88,2.05-1.68,2.96-2.65.91-.55,1.85-1.04,2.92-1.19,1.28.48,2.57.94,3.54,1.98.13.33.11.66-.05.97-.95.88-.98,2.56-2.52,2.93-.95-.08-1.93-.22-2.41.92-.36.74-.33,1.57-.51,2.35-.27.67-.72,1.15-1.43,1.37-.17,0-.34,0-.52-.02-.71-.76-1.42-1.52-2.13-2.28Z"/>
          <path class="cls-58" d="M27.19,54.42c-.02.31-.44.15-.46.46-.92-.94-1.43-1.41-2.35-2.36.57-1.37-.12-2.32-1.05-3.2.2-.54.4-1.09.61-1.63,0,0,0-.02,0-.02.56,0,.99.27,1.35.68.68,1.3,2.03,1.06,3.14,1.36.52.23.89.61,1.13,1.12.17.54.14,1.07-.09,1.59-.22,1.29-2.84-.16-2.28,2.01Z"/>
          <path class="cls-2" d="M1.35,15.59c-.49-3.54,2.46-4.58,4.56-6.19,1.48-1.13,3.1-2.09,4.65-3.13.31.05.49.22.55.53.06.57.19,1.12.46,1.64.37.72.66,1.44.17,2.22-.22.25-.49.44-.8.57-.82.16-1.67.11-2.49.31-2.92.4-4.41,3.29-7.1,4.06Z"/>
          <path class="cls-116" d="M1.35,15.59c2.12-2,3.59-5.02,7.23-4.69.4.88.39,1.78.13,2.69-.39.91-1.02,1.59-1.9,2.04-.37.12-.74.18-1.13.15-.36-.01-.72-.02-1.08-.03-.29-.19-.51-.13-.64.18-.06.15-.02.28.07.38.8,2.65-1.58,1.52-2.51,2.11-.06-.95-.11-1.89-.17-2.84Z"/>
          <path class="cls-100" d="M10.9,6.63l-.16-.19s-.17-.17-.18-.17c.4-.42.79-.83,1.19-1.25,2.13-.76,4.11-2,6.48-1.96,1,.61.43,1.42.28,2.18-.21.45-.52.82-.92,1.11-.27.16-.56.28-.86.37-.77.16-1.37.6-1.87,1.19-.37.34-.79.56-1.3.56-.63-.97-2.47-.22-2.65-1.85Z"/>
          <path class="cls-81" d="M37.63,15.62c-.23-.78-.45-1.56-.68-2.33.83,1.2,3.13-.23,3.42,1.92-.47.42-1.02.53-1.62.42-.37,0-.75,0-1.12,0Z"/>
          <path class="cls-49" d="M38.75,15.63c.47-.41.98-.66,1.62-.42.16.91.31,1.82.47,2.73-.7-.77-1.39-1.54-2.09-2.31Z"/>
          <path class="cls-9" d="M41.28,21.84c.4.47.73.97.48,1.63.01,1.25.57,2.48.1,3.75-.37.69-.92,1.19-1.67,1.46-.8.18-1.54.02-2.24-.37-.5-.32-.89-.74-1.2-1.25-.35-.71-.42-1.43-.08-2.17,2.05-.22,2.58-2.7,4.54-3.07l.06.03Z"/>
          <path class="cls-102" d="M39.96,28.38c.55-.54,1.11-1.07,1.66-1.61.73-.25,1.4-.34,1.68.61.56,1.42-.35,3.14.91,4.42-.1.22-.24.4-.44.53-1.11,1.32-2.39,1.53-3.86.64-.05-1.53-.14-3.07.05-4.6Z"/>
          <path class="cls-89" d="M43.3,27.39c-.56-.2-1.12-.41-1.68-.61-.32-1.12-.31-2.22.14-3.3.69,1.23,1.49,2.43,1.54,3.91Z"/>
          <path class="cls-42" d="M15.28,43.03c-.18.18-.36.37-.55.54-1.3-.55-3.87,1.58-3.81-1.81,1.27-1.77.73-3.65.36-5.53.3-1.36.39-3.01,2.21-3.1,1.31-.06,2.02.89,2.01,2.26-.14,1.08.77,2.2-.1,3.25.15,1.47.86,2.95-.12,4.39Z"/>
          <path class="cls-61" d="M11.7,36.89c2.21,2.01,2.37,3.7-.77,4.86-1.18-.68-2.14-1.55-2.66-2.84.18-.16.36-.32.54-.48.46-1.46.56-3.61,2.9-1.54Z"/>
          <path class="cls-114" d="M9.37,21.94c.21-.68-.1-1.19-.53-1.66-.67-.05-1.05-.44-1.24-1.06.17-1.36,1.17-1.86,2.31-2.21,1.12-.27,2.26-.51,2.79-1.75.52-.58,1.16-.64,1.86-.47,1.05.69,2.98.74,2.11,2.85-.9,1.03-2.21,1.62-2.98,2.78-.63,1.95-.62,4.33-3.26,4.97-1.57-.79-1.03-2.21-1.05-3.46Z"/>
          <path class="cls-66" d="M9.37,21.94c.96.93.55,2.25.96,3.33.62,0,1.01.35,1.25.88.17.93-.19,1.71-.66,2.46-.67,1.4,1.42,1.68,1.2,2.9-.05,1.31-.04,2.69-1.79,2.91-1.88.24-2.79-.95-3.46-2.46-.23-.51-.38-1.04-.46-1.58-.05-.35-.05-.7-.02-1.05.1-.85.45-1.6,1.03-2.22.44-.73-.34-1.05-.53-1.56-.2-.52.05-.99.18-1.47.77-.72,1.53-1.43,2.3-2.15Z"/>
          <path class="cls-74" d="M7.07,24.09c-.01.38-.02.76-.03,1.14.02.5.27.97.17,1.49-.54.9-.64,1.84-.3,2.83l-.03.04c-.76.98-1.48,1.07-2.17-.07-.17-.55-.34-1.1-.51-1.65-.13-1.3-1.96-2.4-.44-3.88,1.09.41,2.2.46,3.32.11Z"/>
          <path class="cls-4" d="M7.8,19.14c.35.38.69.76,1.04,1.14-2.15,3.45-3.44.78-4.9-.69.73-.35,1.47-.7,2.2-1.05.41-.28.85-.31,1.32-.16.28.18.39.43.35.76Z"/>
          <path class="cls-19" d="M25.24,5.94c.08,1.5-.06,3.05.93,4.36-.82.16-2.01-.42-2.17,1.08-.64-.02-1.06-.36-1.34-.91-.35-1.18.05-2.29.3-3.41.37-1.17.86-2.21,2.34-2.22-.02.37-.04.73-.06,1.1Z"/>
          <path class="cls-41" d="M25.29,4.85c-.92.67-1.42,1.61-1.74,2.68-.67-.07-1.07-.46-1.27-1.08.02-.41.15-.79.38-1.14.52-.7,1.22-1.03,2.08-1.04,0,0,.01-.03.01-.03.18.21.35.41.53.62Z"/>
          <path class="cls-40" d="M29.12,5.49c-.16.18-.32.36-.47.54-.46.12-.92.26-1.4.33-.05,0-.29-.51-.21-.61.58-.79,1.34-.5,2.08-.27Z"/>
          <path class="cls-104" d="M24.75,4.26c-.56.53-1.13,1.06-1.69,1.59-.47-.22-.99-.56-1.01.4-.17.5-.5.84-.91,1.13-.85.44-1.68.46-2.47-.13-.7-.57.16-1.53-.54-2.11.04-.7.08-1.39.11-2.09.73-.36,1.46-.72,2.19-1.08,1.55.56,3.24.84,4.32,2.28Z"/>
          <path class="cls-108" d="M7.39,31.23c.88.88.78,2.7,2.74,2.58,1.76-.11.6-2,1.67-2.44.49-1.09.19-2.76,2.08-2.84.7.23,1.15.72,1.43,1.38.38,1.03-.36,2.37.91,3.13.28.15.56.32.84.47.72.38,1.49.7,1.86,1.51.02.16.03.33.05.49-1.16.3-2.32.32-3.45-.12-3.11-4.13-2.75.49-3.81,1.51-1.76-.99-2.08.75-2.9,1.54-.31-1.28-.7-2.37-2.29-1.18-.12-.18-.26-.34-.41-.49-.15-.96-.31-1.92-.46-2.88.11-1.19.08-2.47,1.74-2.65Z"/>
          <path class="cls-90" d="M7.39,31.23c-.58.89-1.16,1.77-1.74,2.65-.5-.56-1.01-1.12-1.51-1.68,1.22-.68-.76-2.03.57-2.69.72.02,1.45.05,2.17.07.17.55.34,1.1.51,1.65Z"/>
          <path class="cls-55" d="M7.25,18.58c-.37-.01-.74-.02-1.11-.03-.91-.79-.25-1.85-.46-2.76.19-.18.39-.36.58-.54,1.33.04,2.1-1.14,3.25-1.49,1.97-1.12,2.29,1.03,3.36,1.7.81,2.4-1.17,1.82-2.29,2.15-1.47-.89-2.18.76-3.32.98Z"/>
          <path class="cls-68" d="M4.03,16.32c-.53.08-1.05.02-1.06-.62,0-.23.42-.58.71-.66.53-.15,1,0,.92.72-.19.19-.38.38-.57.56Z"/>
          <path class="cls-28" d="M42.52,36.74c-1,3.06-2,6.12-3.01,9.18-.14.62-.58,1-1.1,1.3-3.73,1.06-4,.87-4.21-3.04.13-.58.4-1.1.76-1.58.35-.45.76-.84,1.21-1.2,1.51-.95,3.12-1.79,3.97-3.5.49-.59,1.05-1.07,1.82-1.24.19.02.38.05.56.07Z"/>
          <path class="cls-95" d="M29.27,52.22c.02-.36.03-.72.05-1.07.02-.38.15-.71.4-1,1.3-.97,2.67-1.05,4.09-.27.59.57.17,1.9,1.46,1.95-1.58.78-2.2,2.77-4.32,3.16-1.06-1.14-1.48-.79-1.67-2.76Z"/>
          <path class="cls-25" d="M39.8,32.77c1.32-.15,2.65-.29,3.97-.44-.39,1.47-.3,3.09-1.25,4.4,0,0-.24-.08-.24-.08-.69.23-1.35.26-1.84-.37-.23-.36-.18-1.17-1.02-.63-.31,0-.57-.09-.79-.31-.33-.62-.08-1.2.13-1.78.13-.29.33-.53.58-.72.15-.02.31-.05.46-.07Z"/>
          <path class="cls-13" d="M29.27,52.22c.83,1.36,1.17,1.09,1.67,2.76-1.76-.43-1.79-1.06-3.76-.56-2.9-4.13,2.19-.72,2.08-2.2Z"/>
          <path class="cls-21" d="M35.27,51.82c-1.43.31-1.7-.45-1.52-1.64.62-2.31,2.94-2.2,4.5-3.17.42-.37.84-.74,1.26-1.11.13,1-.5,1.6-1.17,2.18-.38,1.4-2.12,1.77-2.45,3.22-.21.17-.42.34-.62.52Z"/>
          <path class="cls-95" d="M35.89,51.31c0-1.69,1.53-2.22,2.45-3.21-.1,1.62-1.49,2.25-2.45,3.21Z"/>
          <path class="cls-59" d="M26.55,16.4c1.03-.89.07-3.2,2.32-3.21,2.24.91.37,1.91.02,3.08,1.06.11,2.11.21,3.15.31.29.59.53,1.21,1.1,1.61.83.65,1.74,1.24,1.71,2.48-.88,1.67-2.28,1.33-3.59.81-1.28-.5-2.43-.54-3.53.35-2.82.99-1.35,4.52-3.5,5.9-2.11.18-2.96-1.28-3.72-2.86-.1-2.9,2.7-4.07,3.75-6.29.33-.43.71-.83,1.09-1.21.35-.39.79-.68,1.21-.99Z"/>
          <path class="cls-32" d="M41.21,21.81c-.37.36-1.07.74-1.04,1.06.26,3.09-1.79,2.18-3.4,2.05-.16-.08-.33-.17-.5-.25-.55-1.35-1.55-2.59-1.07-4.2.45-.97,1.14-1.59,2.28-1.52,1.2,1,1.3,3.44,3.73,2.86Z"/>
          <path class="cls-30" d="M37.49,18.95c-.75.7-1.5,1.4-2.25,2.1-.37.02-.56-.14-.56-.52-.67-.93-1.64-1.4-2.68-1.76.14-.98.67-1.55,1.69-1.59,1.05,1.05,3.53-.96,3.8,1.77Z"/>
          <path class="cls-56" d="M33.69,17.19l-1.69,1.59c-.7-.74-.67-1.47.04-2.19.63-.03,1.57-.88,1.65.6Z"/>
          <path class="cls-72" d="M18.64,6.85c.73.02,1.45.03,2.18.05,1.92.36,1.67,2.1,2.15,3.38.34.37.69.74,1.03,1.11.11.19.25.37.41.53.08.36-.03.65-.33.88-.61.35-1.26.55-1.97.56-1.96.36-1.08-2.63-2.9-2.45-.34-.06-.63-.21-.88-.44-.44-.53-.81-1.11-1.22-1.66-.44-.59-.83-1.2-.88-1.97.09-.41.35-.6.76-.6h0c.64-.02,1.21.13,1.65.62Z"/>
          <path class="cls-76" d="M23.93,12.49c.18-.17.34-.36.47-.58,1.32,1.21.48,3.45,2.14,4.49-.03.36-.06.72-.09,1.08-.57-.04-1.09-.2-1.54-.56-.88-.77-1.41-1.72-1.5-2.9-.01-.57.12-1.1.51-1.54Z"/>
          <path class="cls-53" d="M25.31,38.92c-1.02.87-1.55,2.51-3.36,2.11-1.15-1.88-1.95-3.76.17-5.54-.24-1.22.12-1.81,1.45-1.39.46.29.77.7.91,1.23-.47,1.37,1.29,2.22.84,3.59Z"/>
          <path class="cls-91" d="M15.28,43.03c-.08-1.47-1.03-2.96.13-4.39,1.21.43,2.57.81,2.28,2.51-.22,1.24-1,2.03-2.4,1.89Z"/>
          <path class="cls-122" d="M23.24,34.44c-.9-.21-.78.67-1.13,1.05-1.05-.29-2.09.67-3.14.02,0,0-.2-.08-.2-.08.05-.57.33-1.03.75-1.4,1.62-.65,1.96-3.26,4.29-2.83.33.19.6.45.8.77.23.55.22,1.11.02,1.67-.31.53-.75.84-1.39.8Z"/>
          <path class="cls-12" d="M31.34,39.66c-.92-.99-3.19-.06-3.23-2.29.92-1.88-1.68-1.57-1.76-2.83.04-.36.15-.69.34-1,2.21-2.64,4.09.24,6.14.36.39.44.52.96.48,1.53-.56,1.45.23,3.54-1.97,4.22Z"/>
          <path class="cls-123" d="M26.55,34.57c.58,1.28,2.65-.88,2.89,1.27.12,1.07-.64,1.24-1.33,1.53-.75.85-1.72,1.29-2.8,1.55-.49-.56-.88-1.29-1.49-1.63-2.53-1.41.03-1.23.5-1.7.41-1.07,1.25-1.2,2.23-1.02Z"/>
          <path class="cls-106" d="M29.03,42.89c.67-.84.15-2.44,1.73-2.69.39.03.7.19.95.49.37.75.12,1.41-.27,2.05-.39.64-1.08,1.22-.37,2.07,1.29,1.69-.02,2.2-1.26,2.58-1.23.38-2.47.11-3.65-.38-.32-.21-.51-.5-.54-.88-.66-.77-.65-1.52.08-2.24.93-.94,2.09-1.11,3.33-1Z"/>
          <path class="cls-16" d="M31.29,40.75c-.18-.18-.35-.37-.53-.56.19-.18.38-.36.57-.54.41-1.45.83-2.9,1.24-4.36.88-.27,1.58-1.64,2.63-.73.82.71.65,1.85.41,2.85-.24,1-.69,1.89-1.53,2.53-.84.58-1.75.91-2.79.8Z"/>
          <path class="cls-115" d="M29.03,42.89c-.98.77-2.06,1.2-3.33,1,.46-2.51,1.6-2.73,3.33-1Z"/>
          <path class="cls-50" d="M25.62,46.13c.19.17.37.34.55.52.96.67.41,1.27-.09,1.87-.33.21-.69.31-1.09.29-.35-.38-.71-.76-1.06-1.13.56-.52,1.12-1.03,1.69-1.55Z"/>
          <path class="cls-112" d="M29.89,50.61c-.19.18-.38.36-.57.54l-1.07-1.12c-.48-.08-.7-.36-.65-.84.64-2.18,3.06-1.78,4.36-3,1.78.94,1.15,1.98.03,2.9-.66.55-1.72.56-2.1,1.52Z"/>
          <path class="cls-86" d="M27.74,49.46c.17.19.35.38.52.57-1.27.1-3.11,1.7-3.26-1.21.2-.17.39-.35.59-.52.89.08,1.87-.01,2.16,1.17Z"/>
          <path class="cls-96" d="M12.87,15.45c-.48-.12-1.32,1.72-1.23.2.14-2.38-1.52-.82-2.1-1.38-.67-.09-1.01-.46-1.03-1.14-.67-.76-.65-1.5.06-2.22.73-.61,1.46-.65,2.19,0,1.18.55,2.7.37,3.54,1.64.21.28.37.58.49.91.08.35.07.69-.01,1.04-.09.15-.19.3-.28.45-.55.17-1.09.34-1.64.5Z"/>
          <path class="cls-43" d="M14.5,13.79c-.17-.2-.34-.39-.52-.59-.04-1.71-2.05-1.5-2.62-2.69.29-1.04-.45-1.65-1-2.34.87-1.15,1.5.04,2.23.23.78.74,2.1.41,2.78,1.37.27.48.4,1,.46,1.54-.01,1.06.33,2.31-1.34,2.47Z"/>
          <path class="cls-44" d="M11.37,10.51c1.26.52,2.82.75,2.62,2.69-.38-1.75-3.24,0-3.22-2.3.2-.14.4-.27.6-.39Z"/>
          <path class="cls-10" d="M12.48,9.39c-.59-.6-1.08-1.37-2.11-1.21-.28-.67.09-1.12.53-1.55.65.97,2.52-.03,2.72,1.68-.03.73-.46,1.03-1.14,1.08Z"/>
          <path class="cls-11" d="M8.52,13.13c.34.38.69.76,1.03,1.14-.9.98-1.9,1.61-3.28.98.75-.71,1.5-1.41,2.25-2.12Z"/>
          <path class="cls-110" d="M12.48,9.39c.38-.36.76-.72,1.14-1.08.38-.34.76-.68,1.14-1.02.48-.43,1.01-.7,1.68-.44.51.54,1.02,1.07,1.53,1.61-.12.77-.76,1.01-1.34,1.32-.46.2-.94.31-1.43.12-.9-.17-1.81-.34-2.71-.51Z"/>
          <path class="cls-20" d="M18.64,6.85c-.69.18-1.2-.15-1.65-.62.38-.36.76-.72,1.13-1.08.33-.13.65-.26.98-.4-.15.7-.31,1.39-.46,2.09Z"/>
          <path class="cls-121" d="M16.43,6.85c-.56.15-1.12.29-1.68.44-.01-1.95,1.22-1.27,2.23-1.06l-.55.62Z"/>
          <path class="cls-33" d="M36.77,24.92c.15.58.31,1.16.46,1.74-.15.96.63,2.11-.55,2.87-1.24.15-2.35-.55-3.56-.55-1.31.42-2.49-1.6-3.86-.18-1.32-.21-2.54-.53-2.46-2.26.89-1.62.71-4,3.18-4.5.7-.19,1.32-.09,1.83.47.42.6.47,1.49,1.33,1.77,1.18.39,2.47.17,3.61.69l.02-.05Z"/>
          <path class="cls-65" d="M36.61,29.37c.26-.89-.34-1.98.62-2.71.35.38.71.75,1.06,1.13.45,1,.6,2.05.5,3.14-.03.55-.14,1.07-.37,1.57-.29.48-.69.83-1.22,1.02-.75.11-1.41-.02-1.88-.67-.12-.66.08-1.32-.01-1.97-.05-.32,0-.63.12-.93.29-.42.66-.65,1.19-.57Z"/>
          <path class="cls-25" d="M38.19,31.07c-.33-1.11-.3-2.2.1-3.29.56.2,1.11.4,1.67.59,1.01,1.5,1.65,2.99-.16,4.39h0c-.92-.2-.79-1.4-1.61-1.7Z"/>
          <path class="cls-101" d="M12.71,19.85c1.15-1.12,2.24-2.31,3.93-2.64.5-.08.96.06,1.41.25.75.32,1.59.44,2.26.96.46.58.55,1.25.45,1.97-.29,1.2-.76,2.35-1.24,3.49-.93,1.53-1.42,3.35-3,4.45-1.01.19-1.82-.21-2.52-.9-.45-.61-.68-1.3-.74-2.05,0-.25,0-.52.11-.73q1.57-2.94-.65-4.8Z"/>
          <path class="cls-24" d="M12.71,19.85c.79,1.18,2.54-1.25,3.33,1.12.9,2.7-2.24,2.63-2.4,4.4-.29.32-.62.61-1,.83-.4.21-.81.34-1.26.21-.35-.38-.7-.76-1.05-1.13,2.03-1.27,1.85-3.5,2.38-5.43Z"/>
          <path class="cls-51" d="M17.73,18.35c-.36-.38-.73-.76-1.09-1.14-.03-1.4-2.12-.85-2.13-2.26h-.03c.98-1.97,2.48-1.18,3.91-.76.71.47.9,1.18.88,1.98-.18.96-.55,1.78-1.53,2.17Z"/>
          <path class="cls-11" d="M7.25,18.58c.88-1.11,1.58-2.83,3.32-.98-1.07.26-2.05.67-2.77,1.55-.18-.19-.37-.38-.55-.57Z"/>
          <path class="cls-36" d="M13.53,28.69c-1.04.59-.04,2.51-1.74,2.67-.6-.39-1.15-.88-1.8-1.13-.51-.2-1.41.07-1.22-.79.08-.38.96-.59,1.48-.87.89-.2,1.29-1.41,2.4-1.18.56.26.88.67.88,1.3Z"/>
          <path class="cls-73" d="M12.47,27.54c-.64.56-1.19,1.31-2.21,1.03.37-.72.75-1.44,1.12-2.16.39-.36.78-.71,1.17-1.07.83.32.84,1,.76,1.73-.18.33-.46.49-.84.48Z"/>
          <path class="cls-52" d="M6.91,29.54c-1.36-1.12-1.26-2.21.08-3.27.67.07,1.07.41,1.09,1.12-.39.72-.78,1.43-1.17,2.15Z"/>
          <path class="cls-22" d="M8.07,27.39c-.36-.37-.73-.75-1.09-1.12.02-.35.04-.7.06-1.05.85.44,1.91.7,2.46,1.38.27.34-.93.49-1.42.79Z"/>
          <path class="cls-27" d="M22.96,10.28c-.72-1.13-1.43-2.25-2.15-3.38.38-.36.75-.71,1.13-1.07.4-.06.57.13.54.52.36.39.71.78,1.07,1.18-.2.92-.4,1.84-.59,2.75Z"/>
          <path class="cls-64" d="M22.49,6.35c-.18-.17-.37-.34-.54-.52-.34-.67-1.79-1.47-.53-2,1.22-.51,1.2,1.21,1.65,2.02-.18.17-.37.34-.57.5Z"/>
          <path class="cls-15" d="M19.97,34.37c-.4.35-.8.7-1.2,1.06-.69-.39-1.39-.78-2.08-1.17,0-.53.13-1.03.43-1.47.6-.79,1.31-1.48,1.9-2.27.38-.46.7-.94.59-1.58-.14-.61-.35-1.2-.49-1.81-.12-1.04-.38-2.17,1.24-2.26.16.07.32.13.49.2,1.06.76,2.13,1.52,3.19,2.29.66.04,1.05.42,1.25,1.03-.02.39-.14.75-.34,1.09-2.36.92-3.11,3.47-4.96,4.91Z"/>
          <path class="cls-105" d="M19.53,30.5c.18,1.39-1.03,1.89-1.75,2.7-.66-.21-1.32-.44-1.66.48-2.62-.41-2.09-1.78-1-3.31,0-.56.22-1.03.64-1.4.3-.18.62-.32.96-.4.87.21,1.24,1.08,1.97,1.48.29.12.57.27.83.45Z"/>
          <path class="cls-103" d="M16.26,29.3c-.38.36-.76.71-1.14,1.07-.53-.56-1.06-1.12-1.59-1.68-.35-.38-.71-.77-1.06-1.15.18-.18.37-.35.55-.53.38-.25.75-.24,1.12.03.72.39,1.43.78,2.15,1.17.32.37-.06.73-.03,1.1Z"/>
          <path class="cls-46" d="M16.12,33.68c.45-.58-.55-1.66.54-1.89.26-.06.74.91,1.12,1.41-.36.35-.73.7-1.09,1.05-.19-.19-.38-.38-.56-.57Z"/>
          <path class="cls-79" d="M29.89,50.61c-.5-2.13,3.7-1.72,2.34-4.31.02-1.14.66-1.79,1.68-2.15.2,0,.39,0,.59,0,.36,2.13,1.21,3.61,3.76,2.87-1.2,1.47-2.9,2.26-4.5,3.17-1.31-.02-2.62-.16-3.87.42Z"/>
          <path class="cls-118" d="M40.8,36.1c.49.18.99.37,1.48.55-.53.54-1.05,1.09-1.58,1.63-1.11,1.47-2.91,2.2-3.95,3.73-.38.35-.77.7-1.15,1.05-.64-.02-1.01-.38-1.23-.95-.04-1.34.83-2.45.97-3.75.53-1.21.88-2.55,2.17-3.25.36-.16.73-.22,1.12-.17.17.18.35.36.52.55.46.43,1.04.56,1.64.61Z"/>
          <path class="cls-84" d="M34.57,41.98c.35.36.69.72,1.04,1.09-.37.36-.74.73-1.11,1.09,0,0,0,0,0,0-1.19-.04-2.27,1.26-3.53.26-.6-.61-.37-1.32-.27-2.02.45-.45.79-.95.6-1.64.65-.55,1.2-1.31,2.24-1.02.36,0,.6.16.72.49.09.58-.23,1.25.32,1.75Z"/>
          <path class="cls-84" d="M36.75,42.02c.64-1.95,1.97-3.19,3.95-3.73-.35,2.26-2.34,2.8-3.95,3.73Z"/>
          <path class="cls-3" d="M38.63,34.94c-.19.18-.39.35-.58.53-.95.17-1.89.19-2.13-.98-.15-.73.38-1.15,1.11-1.25.37-.35.74-.71,1.11-1.06.73.03,1.05.45,1.09,1.14.18.69-.15,1.18-.6,1.63Z"/>
          <path class="cls-34" d="M39.24,33.31c-.36-.38-.73-.76-1.09-1.14.01-.37.03-.73.04-1.1,2.71-1.5,1.18,1.03,1.61,1.7-.19.18-.38.36-.57.54Z"/>
          <path class="cls-82" d="M40.8,36.1c-.84.58-1.66,1.11-1.64-.61.49-.3.79-1.14,1.47-.8.24.12.13.92.18,1.42Z"/>
          <path class="cls-5" d="M31.87,23.17c-.46-.45-.96-.79-1.66-.61-1.17-.15-2.5.13-3.25-1.17,1.18-1.42,2.56-2.09,4.27-.94,1.16.78,2.27,1.11,3.44.08.19.17.37.35.56.52,1.16,1.05,1.86,2.29,1.51,3.92-1.48.66-2.95.6-4.39-.12-.39-.49-.27-1.13-.48-1.68Z"/>
          <path class="cls-97" d="M26.96,21.39c1.21.05,2.48-.08,3.25,1.18-1.98.49-.94,3.26-2.88,3.78-1.25.22-.64,2.45-2.35,2.18l-.97-1.18c1.58-1.69-.56-5.21,2.94-5.95Z"/>
          <path class="cls-38" d="M19.2,23.35c-.12-1.28.38-2.33,1.2-3.27.64-.98,2.06-.9,2.63-1.98.88-.44,1.71-.63,2.3.43-.89,2.59-3.69,3.86-4.5,6.52,0,0-.03-.01-.03-.01-.94-.17-1.55-.67-1.6-1.69Z"/>
          <path class="cls-17" d="M25.32,18.54c-.71,0-1.43-.01-2.14-.02-.65-.02-1.01-.4-1.22-.97-.01-.58.25-1.04.66-1.42,1.03-.98,1.86.41,2.83.25.34.37.67.74,1.01,1.11-.38.35-.76.7-1.14,1.05Z"/>
          <path class="cls-99" d="M18.86,16.18c-.15-.56-.31-1.12-.46-1.68-.8-1.45-.74-2.76.65-3.84q2.02-.97,1.99,1.13c-.02.87.74.9,1.26,1.2.87.32.85,1.01.72,1.74-.18.3-.42.55-.72.73-1.17.11-1.95,2.08-3.43.73Z"/>
          <path class="cls-80" d="M19.05,10.66c-.22,1.28-.44,2.56-.65,3.84-1.25.71-2.73-.73-3.93.44,0-.38.02-.76.03-1.14,1.06-.69.38-1.8.66-2.68.17-.81.91-.79,1.48-1.01.64-.1,1.29-.2,1.9.12.17.15.34.29.51.43Z"/>
          <path class="cls-124" d="M18.54,10.23c-.56.13-1.13.27-1.69.4-.46-.46-.54-1.04-.51-1.66.54-.17,1.08-.34,1.62-.51.5.49.8,1.04.58,1.77Z"/>
          <path class="cls-78" d="M22.8,14.57c-.17-.53-.34-1.05-.5-1.58.47-.44.97-.74,1.64-.5-.03.36-.05.72-.07,1.07,0,.71-.34,1.06-1.06,1Z"/>
          <path class="cls-119" d="M22.8,14.57c.35-.33.71-.67,1.06-1,.53.94,1.06,1.88,1.59,2.82-.77,1.27-1.45-.32-2.19-.06-.69-.06-1.01-.47-1.06-1.14.2-.21.39-.41.59-.62Z"/>
          <path class="cls-87" d="M26.55,34.57c-.74.34-1.49.68-2.23,1.02-.36-.38-.71-.77-1.07-1.15.36-.34.72-.69,1.08-1.03,1.25-1.26,2.19-1.09,2.78.62-.19.18-.38.36-.56.55Z"/>
          <path class="cls-107" d="M27.11,34.02c-.79-.83-1.72-1-2.78-.62.04-.37.08-.74.12-1.11.86-2.44,3.17-2.59,5.14-3.28,1.52-.23,3.06-.16,4.58-.37.7.39,1.32.84,1.3,1.77v.03c.04,1.04-.43,1.99-.57,2.99-.59.46-1.12.35-1.59-.15-.05-.19-.08-.3-.08-.3-.37.1-.39.23-.04.4.03.45-.13.75-.6.82-1.11-.25-2.48,1.28-3.4-.84-.44-1.02-1.43.22-2.1.66Z"/>
          <path class="cls-39" d="M30,29.17c-1.53,1.61-3.84,1.84-5.55,3.12-.17-.18-.34-.37-.5-.55-.3-1.02.52-1.79.6-2.73.14-.17.29-.34.44-.49,1.04-.45.62-2.48,2.35-2.18-.29,1.71,1.63,1.32,2.16,2.26.35.03.52.23.5.58Z"/>
          <path class="cls-45" d="M24.55,29.01c.34,1.03.14,1.94-.6,2.73-2.35-.68-1.69,3.22-3.98,2.62,1.38-1.91,1.92-4.54,4.58-5.36Z"/>
          <path class="cls-29" d="M33.2,32.56c.45.45.95.79,1.64.59-.03-.29.04-.46.22-.51.18-.05.29-.05.35.01l1.63.58c-1.35,1.51.02,1.79,1.02,2.23-.76,1.08-1.52,2.16-2.28,3.23-.2.93-.67,1.57-1.71,1.6-.18-.19-.35-.38-.52-.57.4-.76.88-1.5,1.2-2.3.94-2.35-.17-2.71-2.16-2.13,0-.37.02-.73.02-1.1,0-.37.02-.75.03-1.12-.04-.3.03-.48.21-.53.18-.05.3-.05.36.01Z"/>
          <path class="cls-1" d="M31.2,44.07c1.09.29,2.21-.59,3.3.08-.76.71-1.51,1.43-2.27,2.14-1.5,1.05-2.99,2.11-4.49,3.16-.72-.39-1.44-.78-2.16-1.17.45-.46.77-.96.59-1.64,1.39-.05,2.86.16,4.14-.22,1.57-.47.32-.93-.24-1.3.09-.66.41-1.06,1.12-1.06Z"/>
          <path class="cls-125" d="M31.2,44.07c-.37.35-.75.7-1.12,1.06-2.27-1.47.29-1.85.62-2.74.17.56.33,1.12.5,1.68Z"/>
          <path class="cls-93" d="M16.34,8.97c.45.47.74.98.51,1.66-.56.16-1.12.32-1.69.49.01-.4.02-.81.03-1.21.38-.31.76-.62,1.15-.93Z"/>
          <path class="cls-77" d="M30,29.17c-.17-.19-.34-.38-.5-.58.32-.86-.57-2.29.88-2.56,1.21-.22.56,1.1.91,1.64.53.82,1.43.15,2.09.49.39,0,.56.17.5.56-1.19,1.06-2.52.85-3.87.43Z"/>
          <path class="cls-8" d="M33.86,28.74c-.16-.19-.33-.38-.5-.56,1.27-.11,2.31.39,3.25,1.19-.38.35-.76.69-1.14,1.04-.54-.56-1.07-1.11-1.61-1.67Z"/>
          <path class="cls-69" d="M31.87,23.17c1.43.19.56,1.05.48,1.68-1.73-.11-1.11-.89-.48-1.68Z"/>
          <path class="cls-70" d="M35.41,32.65c-.19.17-.38.34-.56.5-.39-1.05-.18-1.95.63-2.71,1.96.8.58,1.49-.07,2.21Z"/>
          <path class="cls-111" d="M22.21,15.18c.35.38.71.76,1.06,1.14-.37.36-.75.71-1.12,1.06-.57.73-1.28,1.16-2.24,1.04-.73.28-1.46.28-2.17-.07.38-.72.76-1.44,1.13-2.16,1.45.81,1.55-2.96,3.35-1Z"/>
          <path class="cls-63" d="M19.2,23.35c.53.56,1.07,1.13,1.6,1.69-1.42.15-1,1.3-1.16,2.14-.55.31-1.05.68-1.5,1.13-.37.33-.79.55-1.31.47-.19.18-.38.35-.57.53,0-.37.02-.73.03-1.1.8-1.72,1.46-3.52,2.91-4.85Z"/>
          <path class="cls-109" d="M19.9,18.42c.64-.57,1.2-1.33,2.24-1.04.35.38.69.76,1.04,1.14.46,3-1.52,1.65-2.79,1.56-.17-.55-.33-1.11-.5-1.66Z"/>
          <path class="cls-36" d="M14.14,27.04c-.37,0-.75-.02-1.12-.03-.16-.56-.32-1.12-.48-1.67.37.01.73.02,1.1.03.42.48.72,1,.5,1.67Z"/>
          <path class="cls-85" d="M17.93,27.72c.09-1.71.9-1.13,1.71-.54.4.49.72,1,.48,1.67-.47.32-.96.35-1.48.14-.47-.29-.74-.71-.72-1.28Z"/>
          <path class="cls-60" d="M19.03,28.81c.37.01.73.03,1.1.04.95.96.32,1.36-.59,1.65-.19.18-.38.36-.57.53-1.03-.77-1.05-1.52.07-2.22Z"/>
          <path class="cls-75" d="M19.03,28.81c-.33.73-.37,1.47-.07,2.22-1.75.22-1.7-1.25-2.12-2.27.37-.35.73-.7,1.1-1.05.37.37.73.73,1.1,1.1Z"/>
          <path class="cls-57" d="M34.06,40.3c.57-.53,1.14-1.06,1.71-1.6.54,1.44-.2,2.4-1.2,3.27-.5.25-1.12.88-1.49.05-.36-.8.54-1.21.97-1.73Z"/>
          <path class="cls-54" d="M33.2,32.56c-.19.18-.38.35-.57.52-.39-.56-1.23-.92-.87-1.82.06-.14.54-.27.56-.24.32.5.59,1.02.88,1.54Z"/>
        </g>
        <g class="cls-117">
          <path class="cls-37" d="M145.54,71.13c.41,1.08.82,2.16,1.23,3.25-.54,1.8.1,3.83-1.06,5.51-.33.15-.64.12-.93-.09-.62-.88-.82-2.05-1.81-2.68-.57-.29-1.15-.13-1.72,0-.51.03-.97-.11-1.36-.44-.18-.29-.27-.61-.29-.94.09-.95.34-1.93-.59-2.65-.26-.23-.49-.48-.73-.73-1.13-1.2-1.36-2.5-.46-3.93.39-.44.89-.54,1.45-.45.32.1.62.27.87.49.72.81,1.34,1.76,2.58,1.85,1,.1,2.34-.97,2.84.82Z"/>
          <path class="cls-6" d="M101.27,85.38c.04-2.14-1.28-4.19-.46-6.39,1.68-.71,2.22.89,3.21,1.57,1.44,1.51,2.79,3.08,3.27,5.2.12,1-.05,1.94-.61,2.8-.49.62-1.12,1.01-1.92,1.11-1.87-.85-2.16-2.99-3.49-4.29Z"/>
          <path class="cls-14" d="M114.94,53.15c2.77-3.33,5.96-6.41,10.56-4.29,3.06,1.4,6.08,3.01,9.11,4.53-.45.43-1.01.56-1.6.58-.57,0-1.13-.07-1.69-.19-2.57-.81-5.22-1.39-7.77-2.28-1.58-.55-3.01-.54-4.36.51-.87.65-1.68,1.41-2.76,1.7-.59.06-1.09-.09-1.48-.56Z"/>
          <path class="cls-120" d="M141.59,76.81c.25-.99.52-1.93,1.59-.54.53,1.17,1.24,2.24,1.78,3.41h0c.27.35.72.6.63,1.15-1.25,2.65-3.56,4.48-5.21,6.82-.87-.75-1-1.72-.86-2.78.09-.32.23-.63.4-.91.44-.67,1.02-1.25,1.31-2.02.26-1.35-.57-2.57-.48-3.89.06-.55.26-1.02.82-1.23Z"/>
          <path class="cls-49" d="M132.75,95.14c1.49-.91,1.68-2.28,3.19-2.54.11-.07.22-.15.33-.22.29-.15.59-.24.9-.3l.67-.63c.09-.18.21-.35.34-.52.21-1.25.78-1.68,2.03-2.59.08-.23.14-.46.18-.69-.08-1.08-.16-2.15-.24-3.23-1.89-.43-2.08,1.52-3.13,2.25-.45.53-.89,1.06-1.31,1.62-.86,1.07-1.39,2.39-2.42,3.33-1.04,1.15-2.96,1.77-2.36,3.92.41.41,1.25-.31,1.82-.39Z"/>
          <path class="cls-91" d="M103.6,81.04c-.93-.68-1.86-1.37-2.79-2.05-1.54-3.41.37-6.24,1.54-9.19.86-.5,1.43-.14,1.87.61.18,1.45-.3,2.8-.7,4.15-.27.46-1.49.53-.45,1.55.81.79,1.52,1.79,1.55,3.05-.05.78-.28,1.47-1.01,1.88Z"/>
          <path class="cls-98" d="M111.82,55.57c.67-1.05,1.83-1.37,2.87-1.86,1.11.36,2.33.58,2.68,1.97,0,1.81-.55,3.87,2.02,4.56.14.94-.28,1.52-1.14,1.85-1.06.27-2.08.1-3.08-.26-1.36-.63-2.26-1.62-2.46-3.15.71-1.32-.32-2.15-.9-3.11Z"/>
          <path class="cls-94" d="M145.54,71.13c-1.15-1.25-1.99.82-3.07.28-.93-1.21-.05-2.28.27-3.35.05-.48.46,0,.02-.27-.23-.14-.43.09-.42.41-.79.62-1.59,1.04-2.55.36h-.07c-.65-1.11-.53-2.24-.05-3.37.24-.53.58-.99,1-1.38.28-.24.6-.42.95-.52,1.39.39,2.29,1.53,3.47,2.26.63,1.82,1.25,3.65.45,5.59Z"/>
          <path class="cls-47" d="M101.27,85.38c1.19.7,2.22,1.81,3.57,1.15,1.37,1.33-3.07,1.11-.31,2.59.87,1.61.05,2.5-1.33,3.16-1.15-.2-.3,1.94-1.59.84.45-2.46-.79-5.27-.33-7.74Z"/>
          <path class="cls-18" d="M145.09,65.54c-2.1.73-2.65-1.03-3.55-2.22-.12-.13-.23-.26-.35-.38-.44-1.48-1.14-2.93-.54-4.54.31-.18.65-.27,1.01-.24,1.41.64,1.94,1.96,2.46,3.27.61,1.3,1.32,2.58.97,4.1Z"/>
          <path class="cls-23" d="M141.55,58.59c-.27-.03-.53-.06-.8-.09-1.04.59-1.78-.09-2.56-.6-1.55-1.66-4.24-2.06-5.05-4.54.49,0,.98.01,1.47.02,2.61.31,5.16.73,6.55,3.39.14.6,1.06,1.04.39,1.81Z"/>
          <path class="cls-83" d="M111.82,55.57c.93.37,2.2.26,2.55,1.43.08.29-.78.85-1.2,1.28-1.12.82-1.17,2.59-2.7,3.05-1.04-.01-1.6-.65-1.97-1.52.73-1.71,1.56-3.35,3.33-4.24Z"/>
          <path class="cls-113" d="M103.92,65.36c.4-1.69,1.98-2.34,3.03-3.45.45.48.58,1.07.59,1.7-.02.84-.21,1.65-.55,2.42-.65,1.11-1.27,2.25-2.86,2.04-1.25-.81-.73-1.76-.22-2.71Z"/>
          <path class="cls-7" d="M116.78,55.81c-.7-.7-1.4-1.4-2.09-2.1-.01-.23.08-.41.26-.55.44,0,.88.01,1.32.02,1.12-.2,2.11.65,3.24.37.34.02.66.13.95.3.4.37.64.81.62,1.37-.44,1.06-1.29,1.65-2.32,2.06-1.13.15-1.6-.59-1.98-1.46Z"/>
          <path class="cls-88" d="M106.79,63.5c.05-.53.11-1.06.16-1.59.51-.7,1.02-1.4,1.53-2.11.61.38,1.22.77,1.82,1.15.33.81-.23,1.23-.72,1.68-.92.31-1.4,2.07-2.8.87Z"/>
          <path class="cls-67" d="M145.6,80.83c-.21-.38-.42-.77-.63-1.15,2.15-1.24-.22-4.01,1.8-5.3.76,2.36.4,4.52-1.17,6.45Z"/>
          <path class="cls-48" d="M141.55,58.59c-.13-.6-.26-1.21-.39-1.81,1.91.97,2.9,2.52,2.96,4.66-.86-.95-1.71-1.9-2.57-2.85Z"/>
          <path class="cls-62" d="M103.88,70.82c-.24-.75-.88-.89-1.53-1.02.1-.24.2-.47.3-.71.47-.7,1.1-1.06,1.96-.87,2.11.75,1.62,1.77.31,2.87-.41.16-.76.07-1.04-.27Z"/>
          <path class="cls-91" d="M104.16,68.43c-.5.22-1.01.44-1.51.66.2-1.32,0-2.78,1.27-3.73.15.81-.39,1.74.39,2.45.36.31.33.52-.15.63Z"/>
          <path class="cls-26" d="M140.14,84.41c-1.24.58-1.21,2.52-2.85,2.68-.17-.04-.34-.08-.52-.12-2.29-1.46-.61-3.04-.15-4.59.61-1.37-.57-2.53-.45-3.84,1-1.2-.75-1.16-.85-1.85-3.45-3.16.04-3.79,1.84-5.03.72.05,1.43.14,1.96.71h0c1.22.86.9,2.14.95,3.33-.02.25-.05.51-.08.76.36,1.25-.29,2.69.7,3.83.24.49.45.99.48,1.55-.15.93-.39,1.83-1.01,2.57h0Z"/>
          <path class="cls-56" d="M139.12,72.36c-.77-.13-1.54-.26-2.31-.39-1.41.28-2.82,1.32-4.24,0-.62-1.87.89-2.91,1.64-4.25.18-.3.4-.57.64-.83,1.18-1.03,2.18-.78,3.02.46.2.28.32.59.38.93-.46,1.52-.3,2.9.87,4.08Z"/>
          <path class="cls-31" d="M139.8,68.56c.87-.35,1.75-.69,2.62-1.04.18-.26.34-.34.5-.24.16.11.23.2.22.29,1.13,1.51-1.02,2.46-.66,3.84-1.37-.51-2.79-.96-2.67-2.86Z"/>
          <path class="cls-56" d="M140.1,80.45c-1.87-1.28-1.24-2.63-.11-3.99.54.12,1.07.23,1.61.35,0,.57-.02,1.14-.03,1.7-.16.89-.38,1.74-1.47,1.94Z"/>
          <path class="cls-71" d="M138.25,68.29c-.25-.07-.49-.14-.74-.21-.24-2.18.68-3.36,2.94-3.35-.24,1.28-.48,2.55-.72,3.83-.49-.09-.98-.18-1.48-.27Z"/>
          <path class="cls-56" d="M140.07,75.7c-.32-1.11-.63-2.22-.95-3.33,2.05.62,2.32,1.74.95,3.33Z"/>
          <path class="cls-67" d="M144.96,79.68c-1.2-.82-2.09-1.8-1.78-3.41,1.22.81,2.35,1.66,1.78,3.41Z"/>
          <path class="cls-35" d="M103.6,81.04c.14-.75.28-1.5.41-2.25.29-.23.61-.3.97-.24,2.05.73,2.75-.38,2.94-2.17,1.04-.68,1.8-1.75,3.04-2.15,1.25.51,1.79,1.71,2.6,2.65.49,1.04,2.1,1.65,1.24,3.21-2.1.44-3.04,2.11-4.01,3.75-1.05,1.26-1.89,3.04-4.03,1.71-1.05-1.51-2.1-3.01-3.15-4.52Z"/>
          <path class="cls-92" d="M106.75,85.56c1.69-.14,2.89-.97,3.6-2.51,1.3.26,2.57.64,3.9.79.99.4,1.94.86,2.7,1.63.38,1.31.78,2.63.53,4.02-.19.3-.46.48-.81.54-1.27-.24-2.63.74-3.85-.27-.5-.81-.97-1.68-2.18-1.38-.81.16-1.45.67-2.19.99-.7.18-1.35.11-1.95-.33-.1-.14-.2-.28-.3-.42.19-1.02.37-2.04.56-3.07Z"/>
          <path class="cls-58" d="M102.75,95.26c-.26.17-.38-.27-.65-.1.21-1.3.28-1.99.49-3.29,1.44-.37,1.79-1.49,1.94-2.76.56-.16,1.11-.33,1.67-.49,0,0,.02,0,.02,0,.34.45.38.96.26,1.49-.63,1.32.36,2.26.79,3.33.12.55.04,1.08-.22,1.58-.33.46-.77.75-1.33.87-1.16.6-1.57-2.38-2.97-.63Z"/>
          <path class="cls-2" d="M118.44,51.34c2.54-2.51,5.14-.76,7.69-.04,1.79.51,3.53,1.23,5.29,1.86.14.27.11.52-.1.75-.42.39-.79.82-1.04,1.34-.35.73-.76,1.39-1.68,1.46-.34-.03-.64-.13-.94-.3-.62-.57-1.09-1.27-1.73-1.81-2.06-2.1-5.27-1.57-7.5-3.27Z"/>
          <path class="cls-116" d="M118.44,51.34c2.88.51,6.17-.12,8.08,3-.47.84-1.19,1.37-2.08,1.71-.96.23-1.88.13-2.77-.31-.32-.22-.58-.49-.8-.81-.21-.3-.41-.59-.62-.89-.02-.34-.2-.48-.53-.41-.15.04-.24.15-.26.28-1.65,2.23-2.16-.36-3.19-.75.73-.61,1.45-1.22,2.18-1.83Z"/>
          <path class="cls-100" d="M131.33,53.64l.06-.24s.03-.24.03-.24c.57.07,1.14.14,1.72.21,1.88,1.25,4.06,2.1,5.44,4.02.11,1.17-.88,1.19-1.58,1.52-.49.1-.97.07-1.44-.08-.29-.12-.56-.28-.81-.47-.59-.52-1.3-.73-2.08-.79-.49-.09-.92-.3-1.23-.71.4-1.09-1.3-2.11-.11-3.23Z"/>
          <path class="cls-81" d="M140.1,80.45c.49-.65.98-1.29,1.46-1.94-.47,1.38,2.05,2.37.5,3.89-.62-.12-1.03-.5-1.31-1.05-.22-.3-.44-.6-.66-.9Z"/>
          <path class="cls-49" d="M140.76,81.35c.61.13,1.12.39,1.31,1.05-.64.67-1.28,1.34-1.91,2.01.2-1.02.4-2.04.61-3.06Z"/>
          <path class="cls-9" d="M137.29,87.09c-.14.6-.34,1.16-1.02,1.36-.99.76-1.65,1.94-2.94,2.32-.78.12-1.5-.02-2.16-.47-.62-.53-.94-1.22-1.04-2.02-.04-.59.06-1.16.29-1.71.36-.71.9-1.19,1.69-1.36,1.4,1.51,3.71.45,5.17,1.8l.02.07Z"/>
          <path class="cls-102" d="M131.26,89.93c.76.12,1.52.25,2.28.37.63.43,1.11.92.51,1.72-.8,1.3-2.73,1.6-3,3.37-.23.05-.46.04-.69-.04-1.72-.1-2.66-1-2.83-2.71,1.2-.95,2.37-1.95,3.72-2.71Z"/>
          <path class="cls-89" d="M134.06,92.03c-.17-.57-.34-1.14-.51-1.72.7-.92,1.59-1.57,2.73-1.86-.57,1.29-1.05,2.65-2.22,3.58Z"/>
          <path class="cls-42" d="M104.77,78.91c-.25-.03-.51-.07-.76-.11-.33-1.37-3.58-2.16-.82-4.14,2.18-.04,3.36-1.6,4.65-3.01,1.27-.57,2.65-1.49,3.81-.08.83,1.01.5,2.16-.61,2.96-.95.53-1.3,1.93-2.67,1.86-1.09,1-1.86,2.45-3.6,2.52Z"/>
          <path class="cls-61" d="M107.55,72.37c-.29,2.98-1.55,4.11-4.36,2.28-.16-1.35-.03-2.64.69-3.83.24.05.47.09.71.15,1.45-.5,3.23-1.7,2.97,1.4Z"/>
          <path class="cls-114" d="M118.15,61.57c.67-.24.89-.79,1.01-1.42-.36-.57-.27-1.11.1-1.63,1.2-.68,2.19-.18,3.15.53.89.73,1.76,1.51,3.07,1.19.77.07,1.21.54,1.48,1.21.08,1.26,1.19,2.83-1.03,3.39-1.36-.11-2.62-.8-4.01-.73-1.95.66-3.84,2.09-5.93.36-.31-1.73,1.15-2.15,2.15-2.91Z"/>
          <path class="cls-66" d="M118.15,61.57c-.17,1.32-1.47,1.78-2.1,2.76.36.5.32,1.01.04,1.53-.64.69-1.49.87-2.37.95-1.53.3-.5,2.14-1.61,2.7-1.08.74-2.18,1.57-3.41.31-1.31-1.36-.9-2.81-.09-4.24.27-.49.6-.93.99-1.32.25-.25.53-.46.83-.65.75-.43,1.55-.59,2.4-.5.85-.08.63-.9.94-1.36.3-.47.82-.55,1.29-.73,1.03.19,2.06.37,3.09.56Z"/>
          <path class="cls-74" d="M115.05,61c-.31.22-.62.44-.93.66-.39.31-.62.8-1.09,1.02-1.04.1-1.86.58-2.45,1.45h-.05c-1.24-.03-1.74-.56-1.24-1.79.34-.46.68-.93,1.02-1.39.96-.88.75-3,2.85-2.67.32,1.12.95,2.03,1.89,2.73Z"/>
          <path class="cls-4" d="M119.45,58.64c-.1.5-.2,1.01-.29,1.51-4.05.33-2.68-2.3-2.38-4.34.72.38,1.44.76,2.16,1.14.47.16.76.5.92.96.02.33-.11.57-.4.73Z"/>
          <path class="cls-19" d="M140.45,64.73c-1.16.96-2.48,1.78-2.94,3.35-.62-.56-.87-1.86-2.16-1.09-.37-.52-.34-1.07-.08-1.62.74-.98,1.87-1.32,2.92-1.8,1.16-.4,2.29-.63,3.17.55-.3.2-.61.41-.91.61Z"/>
          <path class="cls-41" d="M141.37,64.12c-1.09-.34-2.14-.18-3.18.21-.35-.58-.28-1.13.11-1.66.35-.23.72-.35,1.14-.38.87,0,1.56.36,2.08,1.05,0,0,.03,0,.03,0-.06.26-.12.53-.18.79Z"/>
          <path class="cls-40" d="M143.13,67.57c-.24-.02-.48-.04-.71-.05-.37-.3-.76-.59-1.1-.92-.03-.03.23-.53.36-.54.98,0,1.2.78,1.46,1.51Z"/>
          <path class="cls-104" d="M141.51,63.33c-.76-.14-1.52-.27-2.28-.41-.11-.51-.14-1.13-.93-.57-.5.16-.97.1-1.45-.06-.86-.42-1.38-1.07-1.38-2.06.04-.9,1.32-.79,1.37-1.69.58-.39,1.16-.77,1.74-1.16.72.37,1.45.74,2.17,1.11.47,1.58,1.26,3.1.76,4.83Z"/>
          <path class="cls-108" d="M109.51,65.52c-.18,1.23-1.7,2.24-.43,3.73,1.14,1.34,1.96-.71,2.96-.12,1.17-.26,2.33-1.5,3.52-.03.24.7.11,1.35-.25,1.97-.6.91-2.12,1.13-1.97,2.6.05.32.08.64.12.96.13.81.33,1.61-.1,2.4-.12.11-.24.22-.37.33-.94-.75-1.64-1.67-1.96-2.84,1.46-4.96-2.04-1.91-3.49-2.15-.26-2.01-1.84-1.22-2.97-1.4.84-1.01,1.48-1.98-.42-2.54.07-.2.12-.41.15-.63.68-.7,1.36-1.39,2.04-2.09,1.02-.62,2.03-1.41,3.17-.19Z"/>
          <path class="cls-90" d="M109.51,65.52c-1.06.06-2.11.13-3.17.19.15-.74.3-1.48.44-2.21,1.28.57,1.18-1.83,2.5-1.16.41.59.83,1.19,1.24,1.78-.34.46-.68.93-1.02,1.39Z"/>
          <path class="cls-55" d="M119.58,57.85c-.21-.3-.43-.61-.64-.91.09-1.21,1.33-1.3,1.94-2.01.26.05.52.09.78.14.76,1.09,2.17,1,3.14,1.71,2.08.91.54,2.45.64,3.71-1.44,2.09-2.16.15-3.09-.56-.16-1.71-1.92-1.29-2.77-2.08Z"/>
          <path class="cls-68" d="M119.46,53.92c-.38-.38-.65-.83-.13-1.22.18-.14.72,0,.95.17.44.34.6.8-.03,1.17-.26-.04-.53-.08-.79-.12Z"/>
          <path class="cls-28" d="M126.09,96.98c-3.05,1.03-6.1,2.05-9.16,3.08-.58.26-1.15.13-1.7-.1-3.08-2.35-3.08-2.69-.08-5.19.55-.24,1.13-.34,1.72-.34.57.01,1.13.1,1.68.25,1.66.65,3.3,1.43,5.18,1.09.77.03,1.49.2,2.08.72.09.16.19.33.28.49Z"/>
          <path class="cls-95" d="M105.76,95.62c.3-.2.59-.4.89-.6.32-.2.66-.3,1.04-.28,1.56.46,2.44,1.51,2.66,3.11-.11.81-1.42,1.28-.69,2.34-1.57-.8-3.54-.11-5.11-1.58.28-1.53-.25-1.66,1.21-2.99Z"/>
          <path class="cls-25" d="M127.64,92.43c.91.97,1.82,1.95,2.72,2.92-1.42.57-2.65,1.61-4.28,1.63,0,0-.07-.24-.07-.24-.6-.42-1.02-.92-.8-1.7.15-.39.83-.84-.1-1.19-.19-.25-.27-.52-.22-.82.3-.63.91-.78,1.5-.96.31-.07.62-.05.92.03.11.11.22.22.33.33Z"/>
          <path class="cls-13" d="M105.76,95.62c-.6,1.48-.18,1.59-1.21,2.99-.7-1.67-.22-2.07-1.8-3.34,1.58-4.79,1.88,1.32,3.01.35Z"/>
          <path class="cls-21" d="M109.66,100.19c-1.11-.96-.66-1.63.41-2.19,2.22-.89,3.52,1.04,5.23,1.72.55.12,1.09.23,1.64.35-.73.71-1.58.56-2.44.36-1.35.53-2.69-.64-4.04-.04-.26-.06-.52-.13-.79-.19Z"/>
          <path class="cls-95" d="M110.45,100.38c1.36-1.01,2.69-.1,4.04.04-1.36.89-2.7.16-4.04-.04Z"/>
          <path class="cls-59" d="M132.85,72.03c1.33.29,2.61-1.86,3.96-.06.61,2.34-1.31,1.44-2.46,1.86.55.91,1.09,1.81,1.63,2.71-.3.58-.66,1.15-.63,1.84-.02,1.05.04,2.14-.97,2.85-1.87.3-2.43-1.03-2.8-2.4-.37-1.33-1.02-2.27-2.39-2.62-2.48-1.67-4.43,1.62-6.82.72-1.41-1.58-.74-3.14.07-4.69,2.27-1.82,4.88-.27,7.28-.75.54,0,1.08.07,1.62.15.52.05,1.02.23,1.52.38Z"/>
          <path class="cls-32" d="M137.28,87.02c-.5-.08-1.23-.42-1.47-.2-2.32,2.06-2.81-.14-3.67-1.5-.03-.18-.06-.36-.1-.55.75-1.25,1.15-2.79,2.73-3.37,1.05-.22,1.96-.04,2.58.93-.09,1.56-1.98,3.1-.07,4.7Z"/>
          <path class="cls-30" d="M137.34,82.32c-1.01-.18-2.02-.37-3.03-.55-.24-.28-.22-.54.08-.76.34-1.09.14-2.15-.19-3.2.87-.47,1.64-.39,2.28.41-.21,1.47,2.87,2.26.85,4.1Z"/>
          <path class="cls-56" d="M136.49,78.22l-2.28-.41c.18-1.01.78-1.41,1.78-1.27.4.49,1.64.73.5,1.68Z"/>
          <path class="cls-72" d="M135.79,59.98c.42.59.84,1.18,1.26,1.78.86,1.76-.69,2.6-1.43,3.74-.09.5-.18.99-.27,1.49-.09.21-.15.42-.18.64-.24.28-.54.36-.9.26-.64-.28-1.19-.69-1.62-1.24-1.46-1.36,1.46-2.44.23-3.79-.15-.31-.21-.63-.17-.97.16-.67.4-1.31.6-1.97.21-.7.47-1.38,1.05-1.88.38-.18.69-.08.93.25h0c.4.5.63,1.05.49,1.7Z"/>
          <path class="cls-76" d="M134.43,67.59c.25.04.5.05.74.04-.18,1.78-2.47,2.45-2.32,4.4-.31.19-.61.39-.92.58-.31-.48-.49-.99-.47-1.57.09-1.16.53-2.16,1.43-2.93.45-.35.95-.56,1.54-.52Z"/>
          <path class="cls-53" d="M114.05,84.49c-1.31-.29-2.94.26-3.7-1.44.82-2.05,1.85-3.81,4.55-3.18.84-.92,1.52-.98,1.98.33.04.54-.1,1.04-.44,1.47-1.38.44-1.02,2.36-2.38,2.82Z"/>
          <path class="cls-91" d="M104.77,78.91c1.13-.94,1.76-2.6,3.6-2.52.38,1.23.89,2.55-.65,3.32-1.13.57-2.22.41-2.95-.8Z"/>
          <path class="cls-122" d="M116.42,80.15c-.37-.85-1.01-.23-1.52-.28-.4-1.01-1.79-1.28-1.89-2.51,0,0-.06-.21-.06-.21.49-.3,1.02-.35,1.57-.23,1.49.91,3.78-.38,4.83,1.75.05.38,0,.74-.13,1.1-.31.51-.76.84-1.33,1.02-.61.06-1.12-.1-1.47-.64Z"/>
          <path class="cls-12" d="M117.07,89.76c.25-1.33-1.86-2.59-.1-3.96,2.06-.39.26-2.28,1.21-3.1.31-.18.65-.29,1.01-.33,3.44.19,2.25,3.43,3.38,5.14-.12.58-.46.99-.94,1.3-1.5.42-2.7,2.3-4.57.94Z"/>
          <path class="cls-123" d="M118.28,82.88c-.68,1.23,2.29,1.6.71,3.08-.79.74-1.38.23-2.02-.15-1.13-.1-2.07-.61-2.92-1.32.15-.73.51-1.48.42-2.17-.38-2.87,1.01-.71,1.66-.62,1.1-.31,1.71.29,2.15,1.18Z"/>
          <path class="cls-106" d="M113.1,89.85c1.07.04,2.05-1.34,3.19-.22.21.33.27.68.17,1.05-.38.74-1.06.94-1.81,1-.75.07-1.63-.13-1.89.94-.59,2.04-1.78,1.3-2.82.54-1.04-.76-1.56-1.92-1.88-3.16-.03-.38.1-.71.39-.96.22-.99.82-1.43,1.84-1.27,1.31.18,2.14,1.01,2.8,2.07Z"/>
          <path class="cls-16" d="M116.16,90.38c.04-.25.09-.5.13-.75.26.04.52.09.77.13,1.41-.54,2.82-1.07,4.23-1.61.74.55,2.26.29,2.16,1.68-.08,1.08-1.09,1.63-2.04,2.03-.94.4-1.93.58-2.95.28-.97-.32-1.78-.86-2.31-1.76Z"/>
          <path class="cls-115" d="M113.1,89.85c-1.2-.33-2.19-.94-2.8-2.07,2.29-1.13,3.15-.35,2.8,2.07Z"/>
          <path class="cls-50" d="M108.46,89.05c-.02.25-.05.5-.09.75.03,1.17-.77,1.09-1.55,1.05-.37-.14-.67-.37-.88-.7.09-.51.18-1.02.28-1.53.75.14,1.5.28,2.25.42Z"/>
          <path class="cls-112" d="M107.42,95.15c-.26-.04-.51-.09-.77-.13l.26-1.53c-.23-.43-.13-.77.28-1.03,2.13-.79,3.25,1.39,5,1.7.31,1.99-.9,2.11-2.31,1.76-.83-.2-1.48-1.04-2.47-.78Z"/>
          <path class="cls-86" d="M107.06,92.73c-.05.25-.1.5-.15.76-.84-.96-3.22-1.48-.98-3.34.26.05.51.1.77.16.47.76,1.13,1.49.35,2.43Z"/>
          <path class="cls-96" d="M125.44,60.49c-.19-.46-2.16-.03-.89-.87,1.99-1.31-.25-1.71-.14-2.51-.33-.59-.24-1.09.3-1.5.21-.99.81-1.42,1.82-1.28.93.22,1.4.78,1.3,1.76.27,1.27,1.32,2.38.8,3.82-.1.34-.25.65-.44.94-.23.27-.52.47-.84.61-.18.01-.35.03-.53.04-.46-.34-.92-.67-1.38-1.01Z"/>
          <path class="cls-43" d="M127.74,60.81c.05-.25.11-.51.16-.76,1.35-1.05-.03-2.54.59-3.71,1.01-.39,1.05-1.35,1.28-2.2,1.44.01.86,1.23,1.15,1.93-.12,1.07.93,1.93.56,3.05-.22.5-.57.92-.96,1.29-.85.62-1.66,1.64-2.78.4Z"/>
          <path class="cls-44" d="M128.5,56.34c.34,1.32,1.08,2.71-.59,3.71,1.18-1.34-1.93-2.6-.08-3.96.23.08.45.16.68.25Z"/>
          <path class="cls-10" d="M130.07,56.56c.12-.83.45-1.69-.29-2.42.37-.62.95-.6,1.56-.5-.38,1.1,1.53,2.01.28,3.18-.6.41-1.1.25-1.54-.27Z"/>
          <path class="cls-11" d="M124.7,55.61c-.1.5-.2,1-.3,1.5-1.32-.14-2.43-.57-2.75-2.04,1.01.18,2.03.36,3.04.54Z"/>
          <path class="cls-110" d="M130.07,56.56c.51.09,1.03.18,1.54.27.5.1,1,.2,1.5.3.63.13,1.17.39,1.36,1.08-.13.73-.25,1.46-.38,2.19-.69.37-1.27,0-1.86-.28-.44-.25-.81-.56-.95-1.08-.4-.83-.81-1.65-1.21-2.48Z"/>
          <path class="cls-20" d="M135.79,59.98c-.55-.45-.6-1.05-.49-1.69.51.09,1.03.18,1.54.26.3.18.6.37.9.55-.65.29-1.3.59-1.95.88Z"/>
          <path class="cls-121" d="M134.47,58.21c-.45-.36-.9-.72-1.36-1.08,1.55-1.17,1.75.22,2.19,1.15l-.83-.07Z"/>
          <path class="cls-33" d="M132.13,85.32c-.37.47-.75.94-1.12,1.41-.86.45-1.31,1.76-2.63,1.27-.86-.9-.96-2.21-1.69-3.18-1.12-.8-.2-2.96-2.16-3.2-.62-1.19-1.09-2.35.34-3.32,1.83-.25,3.63-1.82,5.51-.14.57.45.87,1.01.72,1.74-.23.7-.91,1.26-.63,2.12.4,1.18,1.34,2.08,1.6,3.31h.06Z"/>
          <path class="cls-65" d="M128.47,87.85c.87-.32,1.39-1.45,2.55-1.13-.09.51-.18,1.02-.27,1.52-.54.96-1.28,1.71-2.22,2.28-.46.3-.94.53-1.48.65-.56.06-1.07-.06-1.55-.37-.54-.53-.83-1.14-.58-1.9.45-.49,1.1-.72,1.57-1.19.23-.23.5-.39.82-.46.5-.02.92.14,1.17.61Z"/>
          <path class="cls-25" d="M128.04,90.13c.69-.92,1.59-1.56,2.7-1.89.17.56.35,1.13.52,1.69-.6,1.71-1.41,3.11-3.62,2.5h0c-.39-.85.65-1.47.4-2.3Z"/>
          <path class="cls-101" d="M121.82,62.99c1.58.25,3.2.42,4.46,1.57.37.35.52.8.65,1.28.19.79.6,1.54.58,2.39-.19.72-.67,1.19-1.31,1.54-1.14.48-2.34.79-3.54,1.09-1.78.17-3.54.87-5.36.25-.76-.7-.92-1.58-.79-2.56.22-.73.64-1.32,1.2-1.82.2-.15.41-.31.65-.35q3.29-.5,3.46-3.39Z"/>
          <path class="cls-24" d="M121.82,62.99c-.47,1.34,2.52,1.29,1.09,3.34-1.63,2.33-3.45-.23-4.96.71-.44-.04-.86-.13-1.26-.31-.4-.19-.75-.45-.92-.88.09-.5.19-1.01.28-1.51,2.23.87,3.92-.61,5.78-1.34Z"/>
          <path class="cls-51" d="M126.02,66.12c.09-.52.17-1.04.26-1.56,1.11-.86-.59-2.21.54-3.06v-.04c2.15-.38,2.41,1.29,2.93,2.69.05.86-.41,1.43-1.07,1.89-.87.43-1.76.62-2.66.07Z"/>
          <path class="cls-11" d="M119.58,57.85c1.42.04,3.21-.42,2.77,2.08-.85-.7-1.76-1.24-2.9-1.3.04-.26.08-.52.12-.78Z"/>
          <path class="cls-36" d="M115.22,68.93c-1.1-.48-2.03,1.47-3.18.21-.04-.71.02-1.45-.17-2.12-.15-.52-.9-1.08-.1-1.45.35-.16,1.05.42,1.58.67.7.59,1.9.19,2.38,1.22.13.6,0,1.11-.52,1.48Z"/>
          <path class="cls-73" d="M115.5,67.39c-.83-.18-1.76-.17-2.15-1.16.8-.13,1.6-.26,2.4-.39.52.1,1.04.2,1.55.3.24.86-.3,1.27-.93,1.64-.37.05-.67-.08-.88-.39Z"/>
          <path class="cls-52" d="M110.58,64.13c.09-1.76,1.02-2.33,2.67-1.89.34.58.31,1.11-.25,1.54-.81.12-1.61.23-2.42.35Z"/>
          <path class="cls-22" d="M113,63.78c.08-.51.17-1.03.25-1.54.29-.19.58-.39.87-.58.16.94.58,1.95.36,2.79-.11.42-.95-.45-1.48-.67Z"/>
          <path class="cls-27" d="M135.62,65.5c.48-1.25.95-2.49,1.43-3.74.51.09,1.02.18,1.53.27.28.29.24.53-.09.75-.1.52-.2,1.04-.3,1.56-.85.39-1.71.78-2.56,1.17Z"/>
          <path class="cls-64" d="M138.49,62.77c.03-.25.06-.5.09-.75.33-.67.11-2.32,1.29-1.62,1.14.67-.25,1.69-.64,2.53-.25-.04-.49-.1-.74-.16Z"/>
          <path class="cls-15" d="M114.51,77.49c-.52-.11-1.04-.22-1.57-.33-.1-.79-.2-1.58-.3-2.37.43-.32.9-.51,1.44-.53.99,0,1.97.17,2.95.16.59.03,1.17,0,1.62-.47.41-.48.75-1,1.16-1.48.77-.72,1.51-1.6,2.55-.36.04.17.09.34.13.51.02,1.31.05,2.62.07,3.92.36.56.29,1.09-.08,1.62-.33.21-.69.33-1.07.37-2.15-1.34-4.64-.42-6.9-1.04Z"/>
          <path class="cls-105" d="M117.35,74.82c-1.01.97-2.13.3-3.21.21-.22-.66-.44-1.32-1.37-1.04-1.23-2.34.18-2.74,2.06-2.78.45-.33.96-.44,1.51-.32.32.13.62.31.9.53.35.82-.13,1.64,0,2.46.08.31.12.62.13.94Z"/>
          <path class="cls-103" d="M116.36,71.49c-.51-.09-1.03-.19-1.54-.28.13-.76.27-1.52.4-2.28.1-.51.19-1.03.29-1.54.25.04.5.08.75.13.42.16.64.46.65.91.12.81.23,1.61.35,2.42-.11.48-.62.39-.9.63Z"/>
          <path class="cls-46" d="M112.76,73.99c.74.02,1-1.43,1.83-.7.2.18-.29,1.14-.46,1.74-.5-.08-1-.17-1.5-.25.04-.26.08-.53.12-.79Z"/>
          <path class="cls-79" d="M107.42,95.15c1.41-1.67,3.59,1.94,4.85-.7.92-.67,1.83-.54,2.73.06.12.16.23.32.35.48-1.49,1.56-2.17,3.13-.05,4.73-1.9-.08-3.54-.97-5.23-1.72-.77-1.06-1.44-2.2-2.65-2.85Z"/>
          <path class="cls-118" d="M125.57,95.23c.15.51.3,1.01.44,1.52-.75-.1-1.5-.19-2.25-.29-1.84,0-3.5-1.02-5.35-.94-.51-.1-1.02-.2-1.53-.3-.37-.52-.3-1.04.02-1.55,1.05-.84,2.46-.79,3.59-1.46,1.29-.3,2.57-.82,3.9-.2.34.19.61.45.81.79-.04.25-.08.5-.13.75-.07.63.17,1.17.49,1.69Z"/>
          <path class="cls-84" d="M117.14,93.74c-.08.49-.17.99-.25,1.48-.51-.08-1.03-.16-1.54-.24,0,0,0,0,0,0-.67-.98-2.37-1.07-2.32-2.68.12-.85.84-1.09,1.46-1.42.63.09,1.23.06,1.67-.5.83.19,1.77.18,2.16,1.19.22.28.23.57.03.87-.41.42-1.14.56-1.22,1.3Z"/>
          <path class="cls-84" d="M118.41,95.52c1.95-.65,3.73-.33,5.35.94-2.03,1.07-3.64-.2-5.35-.94Z"/>
          <path class="cls-3" d="M125.21,92.8c-.26-.05-.51-.1-.77-.15-.71-.65-1.28-1.4-.49-2.3.49-.55,1.15-.38,1.67.15.51.08,1.01.17,1.52.25.41.6.27,1.11-.26,1.55-.44.56-1.04.59-1.67.49Z"/>
          <path class="cls-34" d="M126.88,92.3c.09-.52.17-1.04.26-1.55.3-.21.6-.41.91-.62,2.83,1.28-.12,1.56-.4,2.31-.26-.04-.51-.09-.77-.13Z"/>
          <path class="cls-82" d="M125.57,95.23c-.97-.33-1.88-.67-.49-1.68.53.22,1.39-.05,1.52.7.05.26-.67.65-1.03.99Z"/>
          <path class="cls-5" d="M130.6,80.34c.08-.64.05-1.24-.5-1.69-.58-1.03-1.6-1.93-1-3.31,1.85.1,3.2.8,3.3,2.87.07,1.4.47,2.48,1.99,2.81-.03.25-.06.51-.08.76-.15,1.56-.72,2.86-2.24,3.55-1.42-.79-2.24-2-2.53-3.6.16-.61.75-.89,1.06-1.39Z"/>
          <path class="cls-97" d="M129.1,75.34c.68,1,1.55,1.94,1,3.31-1.57-1.3-3.18,1.19-4.75-.05-.92-.87-2.35.95-3.15-.58l.37-1.48c2.3.26,3.85-3.56,6.53-1.2Z"/>
          <path class="cls-38" d="M122.89,70.29c.95-.86,2.1-1.09,3.34-.99,1.16-.07,1.95,1.12,3.15.93.88.44,1.53.99,1.03,2.1-2.61.83-5.31-.65-7.91.29,0,0,0-.03,0-.03-.42-.86-.39-1.64.4-2.29Z"/>
          <path class="cls-17" d="M130.41,72.32c-.42-.58-.84-1.15-1.27-1.73-.37-.53-.28-1.05.05-1.55.46-.36.98-.43,1.54-.32,1.4.24.79,1.73,1.49,2.42-.09.49-.19.98-.28,1.47-.51-.1-1.02-.19-1.52-.29Z"/>
          <path class="cls-99" d="M128.43,65.73c.36-.46.72-.92,1.07-1.38.69-1.51,1.77-2.24,3.47-1.77q1.99,1.04.28,2.27c-.71.51-.27,1.13-.21,1.72.27.89-.3,1.28-.97,1.62-.35.04-.69-.01-1.01-.14-.78-.87-2.84-.32-2.63-2.32Z"/>
          <path class="cls-80" d="M132.98,62.58c-1.16.59-2.31,1.18-3.47,1.77-1.31-.57-1.04-2.63-2.69-2.89.31-.22.62-.44.93-.66,1.18.44,1.67-.77,2.54-1.07.75-.34,1.17.26,1.7.58.46.46.93.91,1.04,1.6-.02.22-.03.44-.04.67Z"/>
          <path class="cls-124" d="M133.02,61.92c-.44-.37-.89-.74-1.33-1.12.1-.64.51-1.06,1.03-1.4.46.33.92.66,1.38,1-.09.69-.35,1.27-1.07,1.52Z"/>
          <path class="cls-78" d="M132.08,67.92c.32-.45.64-.9.96-1.35.63.11,1.18.33,1.38,1.02-.3.19-.6.39-.91.58-.57.42-1.05.36-1.44-.25Z"/>
          <path class="cls-119" d="M132.08,67.92c.48.08.96.17,1.44.25-.44.99-.87,1.97-1.31,2.96-1.48.15-.61-1.35-1.26-1.79-.36-.59-.22-1.09.28-1.53.28.03.57.07.85.1Z"/>
          <path class="cls-87" d="M118.28,82.88c-.72-.39-1.43-.79-2.15-1.18.09-.52.19-1.03.28-1.55.49.08.98.17,1.48.25,1.76.25,2.18,1.1,1.17,2.6-.26-.04-.52-.08-.77-.13Z"/>
          <path class="cls-107" d="M119.06,83.01c.19-1.13-.23-1.98-1.17-2.6.32-.19.64-.38.96-.57,2.47-.77,3.97.99,5.7,2.16,1.09,1.08,1.96,2.36,3.04,3.45.11.8.12,1.57-.64,2.1l-.02.02c-.81.65-1.85.84-2.74,1.33-.73-.2-.95-.69-.83-1.36.12-.15.19-.24.19-.24-.3-.24-.41-.17-.34.21-.34.29-.68.35-1.01.01-.46-1.04-2.51-1.23-1.36-3.23.56-.97-1.03-1.01-1.78-1.29Z"/>
          <path class="cls-39" d="M124.67,82.43c-2.2-.27-3.77-1.98-5.82-2.58.04-.24.09-.49.15-.73.64-.85,1.75-.66,2.55-1.15.22.01.44.03.66.06.98.56,2.35-.99,3.15.58-1.54.79-.08,2.1-.52,3.08.18.3.13.55-.16.75Z"/>
          <path class="cls-45" d="M121.54,77.96c-.62.89-1.47,1.27-2.55,1.15-.86-2.29-3.59.57-4.48-1.62,2.36-.04,4.79-1.17,7.03.47Z"/>
          <path class="cls-29" d="M123.87,87.02c-.09.64-.07,1.24.51,1.67.21-.2.39-.25.54-.13.15.11.21.21.2.29l.51,1.66c-2.02-.18-1.42,1.08-1.18,2.15-1.32.03-2.64.07-3.96.1-.86.39-1.66.4-2.3-.42.05-.25.09-.51.14-.76.85-.13,1.73-.19,2.56-.41,2.45-.65,2.07-1.75.42-3,.3-.21.6-.42.9-.64.3-.22.61-.43.91-.65.22-.21.4-.26.55-.15.15.11.22.21.2.3Z"/>
          <path class="cls-1" d="M113.44,92.29c.42,1.05,1.79,1.42,1.9,2.69-1.02-.18-2.05-.36-3.07-.54-1.74-.57-3.48-1.14-5.22-1.71-.12-.81-.23-1.62-.35-2.43.63.09,1.23.05,1.67-.51.87,1.08,1.58,2.39,2.66,3.19,1.32.98.94-.3.9-.97.58-.32,1.1-.31,1.52.27Z"/>
          <path class="cls-125" d="M113.44,92.29c-.51-.09-1.01-.18-1.52-.27-.18-2.7,1.66-.87,2.56-1.14-.35.47-.7.94-1.05,1.41Z"/>
          <path class="cls-93" d="M132.71,59.4c-.11.64-.34,1.18-1.03,1.4-.47-.35-.93-.71-1.4-1.06.33-.23.66-.47.99-.7.48.12.95.24,1.43.37Z"/>
          <path class="cls-77" d="M124.67,82.43c.05-.25.11-.5.16-.75.88-.25,1.5-1.83,2.57-.82.9.84-.55,1.11-.78,1.71-.34.91.74,1.24.85,1.97.24.31.2.55-.15.74-1.56-.32-2.19-1.51-2.66-2.84Z"/>
          <path class="cls-8" d="M127.33,85.27c.05-.24.1-.49.15-.74.85.95,1.07,2.09.98,3.31-.5-.1-1.01-.19-1.51-.29.13-.76.25-1.53.38-2.29Z"/>
          <path class="cls-69" d="M130.6,80.34c.7,1.26-.51,1.07-1.06,1.39-.95-1.45.05-1.42,1.06-1.39Z"/>
          <path class="cls-70" d="M125.12,88.84c-.25-.05-.49-.1-.74-.15.6-.94,1.45-1.31,2.55-1.11.53,2.05-.85,1.35-1.81,1.27Z"/>
          <path class="cls-111" d="M131.23,67.82c-.09.51-.18,1.02-.28,1.53-.51-.09-1.02-.18-1.53-.27-.93-.02-1.69-.34-2.17-1.18-.66-.42-1.1-1-1.24-1.79.8-.13,1.61-.26,2.41-.38.22,1.65,3.29-.52,2.8,2.08Z"/>
          <path class="cls-63" d="M122.89,70.29c-.13.76-.26,1.53-.4,2.29-.97-1.05-1.64-.02-2.41.35-.58-.26-1.18-.44-1.8-.53-.49-.1-.91-.3-1.15-.77-.26-.05-.51-.09-.77-.14.3-.21.6-.42.9-.63,1.86-.39,3.7-.93,5.63-.57Z"/>
          <path class="cls-109" d="M127.26,67.9c.84.17,1.78.17,2.17,1.18-.1.5-.19,1.01-.29,1.51-2.13,2.16-2.23-.23-2.92-1.3.34-.46.69-.93,1.03-1.39Z"/>
          <path class="cls-36" d="M116.91,68.44c-.22-.3-.43-.61-.65-.91.35-.46.7-.92,1.06-1.38.21.3.42.6.63.9-.14.62-.37,1.17-1.04,1.4Z"/>
          <path class="cls-85" d="M118.63,71.88c1.43-.95,1.44.05,1.45,1.05-.15.61-.37,1.17-1.05,1.38-.54-.18-.85-.56-1-1.1-.05-.55.12-1.01.6-1.34Z"/>
          <path class="cls-60" d="M118.4,73.41c.21.3.42.6.62.9-.2,1.34-.9,1.07-1.68.51-.26-.05-.51-.09-.77-.14,0-1.29.59-1.75,1.83-1.27Z"/>
          <path class="cls-75" d="M118.4,73.41c-.78.17-1.4.58-1.83,1.27-1.22-1.27-.01-2.1.55-3.06.5.08,1,.17,1.5.25-.07.51-.15,1.02-.22,1.54Z"/>
          <path class="cls-57" d="M118.18,92.33c.77.14,1.54.28,2.3.42-.83,1.29-2.05,1.27-3.34.99-.5-.25-1.37-.37-.93-1.16.43-.77,1.29-.29,1.97-.25Z"/>
          <path class="cls-54" d="M123.87,87.02c-.25-.04-.51-.09-.76-.15.22-.65,0-1.54.94-1.78.15-.04.54.27.53.31-.21.55-.46,1.08-.71,1.62Z"/>
        </g>
      </g>
    </g>
  </g>
</svg>