<?xml version="1.0" encoding="UTF-8"?>
<svg id="_レイヤー_2" data-name="レイヤー_2" xmlns="http://www.w3.org/2000/svg" viewBox="0 0 958.23 234.28">
  <defs>
    <style>
      .cls-1 {
        fill: #fff;
      }

      .cls-2 {
        fill: #93b400;
      }

      .cls-3 {
        stroke-width: 3px;
      }

      .cls-3, .cls-4 {
        fill: none;
        stroke: #fff;
        stroke-miterlimit: 10;
      }

      .cls-4 {
        stroke-width: 2px;
      }
    </style>
  </defs>
  <g id="_レイヤー_1-2" data-name="レイヤー_1">
    <g id="_ホワイト" data-name="ホワイト">
      <g>
        <path class="cls-1" d="M288.38,189.2c10.66-.52,12.35-4.42,12.35-22.49v-66.17c0-1.95-.26-2.21-2.21-2.21h-8.97c-.52,0-.78-.13-.78-1.17s.26-1.17.78-1.17h26.26c1.17,0,2.21.52,2.6,1.69l21.06,61.49c1.95,5.59,3.38,10.27,3.9,13h.52l25.48-74.49c.39-1.17,1.04-1.69,2.73-1.69h25.35c.52,0,.78.13.78,1.17s-.26,1.17-.78,1.17h-8.45c-1.95,0-2.21.26-2.21,2.21v86.45c0,1.95.26,2.21,2.21,2.21h9.75c.52,0,.78.13.78,1.17s-.26,1.17-.78,1.17h-40.04c-.52,0-.78-.13-.78-1.17s.26-1.17.78-1.17h9.88c1.95,0,2.21-.26,2.21-2.21v-83.72h-.65l-29.9,86.71c-.26,1.04-.78,1.56-2.08,1.56h-2.08c-1.17,0-1.82-.39-2.21-1.56l-30.03-87.1h-.52v63.83c0,18.07,1.56,21.97,14.69,22.49.52,0,.78.39.78,1.17,0,1.04-.26,1.17-.78,1.17h-29.64c-.52,0-.78-.13-.78-1.17,0-.78.26-1.17.78-1.17Z"/>
        <path class="cls-1" d="M490.28,191.54h-36.53c-.52,0-.78-.13-.78-1.17s.26-1.17.78-1.17h10.01c1.95,0,2.08-.26,1.43-2.21l-10.14-29.12h-29.51l-2.6,7.8c-6.37,18.85-5.33,23.01,7.15,23.53.52,0,.78.13.78,1.17s-.26,1.17-.78,1.17h-26.65c-.52,0-.78-.13-.78-1.17,0-.78.26-1.17,1.04-1.17,7.28-.52,10.01-3.64,16.9-24.18l23.14-68.9c.26-.65.78-1.04,1.43-1.04h3.38c.78,0,1.04.26,1.3,1.04l31.72,90.87c.65,1.95.91,2.21,2.86,2.21h5.85c.52,0,.78.13.78,1.17s-.26,1.17-.78,1.17ZM426.18,155.53h28.08l-9.62-27.56c-1.43-4.29-2.99-9.1-4.03-13.52h-.52l-13.91,41.08Z"/>
        <path class="cls-1" d="M495.6,189.2h9.1c1.95,0,2.21-.26,2.21-2.21v-86.45c0-1.95-.26-2.21-2.21-2.21h-8.71c-.52,0-.78-.13-.78-1.17s.26-1.17.78-1.17h43.55c28.34,0,47.84,19.37,47.84,47.84s-19.5,47.71-46.54,47.71h-45.24c-.52,0-.78-.13-.78-1.17s.26-1.17.78-1.17ZM558.66,105.61c-4.29-4.29-10.79-7.28-19.11-7.28h-14.43c-1.95,0-2.21.26-2.21,2.21v86.45c0,1.95.26,2.21,2.21,2.21h15.73c7.54,0,13.39-2.6,17.81-7.02,6.63-6.63,10.4-17.42,10.4-38.35s-3.77-31.59-10.4-38.22Z"/>
        <path class="cls-1" d="M644.84,94.82c22.36,0,45.5,21.06,45.5,49.14s-20.54,49.14-45.5,49.14-45.5-21.06-45.5-49.14,23.14-49.14,45.5-49.14ZM627.42,184c4.42,4.42,9.1,6.76,17.42,6.76s13.91-2.34,18.2-6.63c6.63-6.63,8.97-17.68,8.97-40.17s-2.34-33.54-8.97-40.17c-4.42-4.42-10.66-6.63-18.2-6.63s-13.13,2.34-17.42,6.63c-6.63,6.63-9.75,17.68-9.75,40.17s3.12,33.41,9.75,40.04Z"/>
        <path class="cls-1" d="M700.48,189.2h9.1c1.95,0,2.21-.26,2.21-2.21v-86.45c0-1.95-.26-2.21-2.21-2.21h-8.71c-.52,0-.78-.13-.78-1.17s.26-1.17.78-1.17h37.83c.52,0,.78.13.78,1.17s-.26,1.17-.78,1.17h-8.71c-1.95,0-2.21.26-2.21,2.21v38.48l21.45-19.24c22.75-20.41,19.37-20.93,5.98-21.45-.52,0-.78-.39-.78-1.17,0-1.04.26-1.17.78-1.17h32.11c.52,0,.78.13.78,1.17,0,.78-.26,1.17-1.04,1.17-9.1.52-11.18.91-36.14,23.01l-11.83,10.53,41.47,55.12c1.56,1.95,1.95,2.21,3.9,2.21h7.28c.52,0,.78.13.78,1.17s-.26,1.17-.78,1.17h-40.69c-.52,0-.78-.13-.78-1.17s.26-1.17.78-1.17h10.4c1.95,0,2.21-.26.65-2.21l-25.22-33.41c-2.08-2.73-8.06-10.92-8.58-11.96h-.52v45.37c0,1.95.26,2.21,2.21,2.21h8.71c.52,0,.78.13.78,1.17s-.26,1.17-.78,1.17h-38.22c-.52,0-.78-.13-.78-1.17s.26-1.17.78-1.17Z"/>
        <path class="cls-1" d="M884.56,191.54h-36.53c-.52,0-.78-.13-.78-1.17s.26-1.17.78-1.17h10.01c1.95,0,2.08-.26,1.43-2.21l-10.14-29.12h-29.51l-2.6,7.8c-6.37,18.85-5.33,23.01,7.15,23.53.52,0,.78.13.78,1.17s-.26,1.17-.78,1.17h-26.65c-.52,0-.78-.13-.78-1.17,0-.78.26-1.17,1.04-1.17,7.28-.52,10.01-3.64,16.9-24.18l23.14-68.9c.26-.65.78-1.04,1.43-1.04h3.38c.78,0,1.04.26,1.3,1.04l31.72,90.87c.65,1.95.91,2.21,2.86,2.21h5.85c.52,0,.78.13.78,1.17s-.26,1.17-.78,1.17ZM820.47,155.53h28.08l-9.62-27.56c-1.43-4.29-2.99-9.1-4.03-13.52h-.52l-13.91,41.08Z"/>
      </g>
      <path class="cls-4" d="M.46,152.53c149.89,77.57,266.72,85.17,343.38,79.12,198.79-15.69,334.78-139.54,541.19-87.03,32.69,8.32,58.13,18.76,72.79,25.32"/>
      <g>
        <path class="cls-2" d="M180,157.07c-13.59-19.76-34.42-26.93-55.9-26.94-1.36,5.54-2.1,11.32-2.1,17.28,0,39.76,32.24,72,72,72,26.3,0,49.3-14.11,61.86-35.17-27.14,6.89-58.74-2.44-75.86-27.17Z"/>
        <path class="cls-3" d="M200.33,69.08c-33.81,0-62.16,23.31-69.9,54.72,21.48,0,42.32,7.17,55.9,26.94,17.12,24.73,48.72,34.07,75.86,27.17,6.43-10.78,10.14-23.37,10.14-36.83,0-39.76-32.24-72-72-72Z"/>
      </g>
      <g>
        <path class="cls-1" d="M183.01,50.97h6.6c.9,0,1.02-.12,1.02-1.02V9.03h-3.06c-6.36,0-9.72,4.32-10.86,13.62-.06.24-.36.36-.6.36s-.48-.12-.48-.36v-13.62c0-.84.18-1.08,1.02-1.08h35.34c.84,0,1.02.24,1.02,1.08v13.62c0,.3-.3.36-.54.36-.3,0-.48-.06-.54-.36-1.14-9.3-4.32-13.62-10.68-13.62h-3.24v40.92c0,.9.12,1.02,1.02,1.02h6.66c.24,0,.36.06.36.54s-.12.54-.36.54h-22.68c-.24,0-.36-.06-.36-.54s.12-.54.36-.54Z"/>
        <path class="cls-1" d="M237.91,28.53v.24c7.98.96,12.3,3.84,12.3,11.52v7.14c0,2.46,1.02,3.66,2.88,3.66.9,0,2.1-.48,2.94-.96.24-.12.78.54.54.78-1.26,1.08-3.18,1.86-5.64,1.86-4.92,0-8.1-2.58-8.1-7.26v-9c0-4.98-3.84-7.26-8.4-7.26h-5.4v20.7c0,.9.12,1.02,1.02,1.02h3.72c.24,0,.36.06.36.54s-.12.54-.36.54h-17.34c-.24,0-.36-.06-.36-.54s.12-.54.36-.54h4.2c.9,0,1.02-.12,1.02-1.02V10.05c0-.9-.12-1.02-1.02-1.02h-4.02c-.24,0-.36-.06-.36-.54s.12-.54.36-.54h17.4c10.08,0,15.06,4.14,15.06,10.32,0,5.58-4.32,9.36-11.16,10.26ZM238.99,11.01c-1.26-1.26-2.7-1.98-5.4-1.98h-3.54c-.9,0-1.02.12-1.02,1.02v18.12h4.14c2.88,0,4.26-.48,5.82-2.04,1.32-1.32,2.46-4.38,2.46-7.86s-1.14-5.94-2.46-7.26Z"/>
        <path class="cls-1" d="M298.03,52.05h-16.86c-.24,0-.36-.06-.36-.54s.12-.54.36-.54h4.62c.9,0,.96-.12.66-1.02l-4.68-13.44h-13.62l-1.2,3.6c-2.94,8.7-2.46,10.62,3.3,10.86.24,0,.36.06.36.54s-.12.54-.36.54h-12.3c-.24,0-.36-.06-.36-.54,0-.36.12-.54.48-.54,3.36-.24,4.62-1.68,7.8-11.16l10.68-31.8c.12-.3.36-.48.66-.48h1.56c.36,0,.48.12.6.48l14.64,41.94c.3.9.42,1.02,1.32,1.02h2.7c.24,0,.36.06.36.54s-.12.54-.36.54ZM268.45,35.43h12.96l-4.44-12.72c-.66-1.98-1.38-4.2-1.86-6.24h-.24l-6.42,18.96Z"/>
        <path class="cls-1" d="M307.45,50.97h6.6c.9,0,1.02-.12,1.02-1.02V9.03h-3.06c-6.36,0-9.72,4.32-10.86,13.62-.06.24-.36.36-.6.36s-.48-.12-.48-.36v-13.62c0-.84.18-1.08,1.02-1.08h35.34c.84,0,1.02.24,1.02,1.08v13.62c0,.3-.3.36-.54.36-.3,0-.48-.06-.54-.36-1.14-9.3-4.32-13.62-10.68-13.62h-3.24v40.92c0,.9.12,1.02,1.02,1.02h6.66c.24,0,.36.06.36.54s-.12.54-.36.54h-22.68c-.24,0-.36-.06-.36-.54s.12-.54.36-.54Z"/>
        <path class="cls-1" d="M347.83,50.97h6.6c.9,0,1.02-.12,1.02-1.02V9.03h-3.06c-6.36,0-9.72,4.32-10.86,13.62-.06.24-.36.36-.6.36s-.48-.12-.48-.36v-13.62c0-.84.18-1.08,1.02-1.08h35.34c.84,0,1.02.24,1.02,1.08v13.62c0,.3-.3.36-.54.36-.3,0-.48-.06-.54-.36-1.14-9.3-4.32-13.62-10.68-13.62h-3.24v40.92c0,.9.12,1.02,1.02,1.02h6.66c.24,0,.36.06.36.54s-.12.54-.36.54h-22.68c-.24,0-.36-.06-.36-.54s.12-.54.36-.54Z"/>
        <path class="cls-1" d="M403.08,7.41c10.32,0,21,9.72,21,22.68s-9.48,22.68-21,22.68-21-9.72-21-22.68,10.68-22.68,21-22.68ZM395.05,48.57c2.04,2.04,4.2,3.12,8.04,3.12s6.42-1.08,8.4-3.06c3.06-3.06,4.14-8.16,4.14-18.54s-1.08-15.48-4.14-18.54c-2.04-2.04-4.92-3.06-8.4-3.06s-6.06,1.08-8.04,3.06c-3.06,3.06-4.5,8.16-4.5,18.54s1.44,15.42,4.5,18.48Z"/>
        <path class="cls-1" d="M450.24,28.53v.24c7.98.96,12.3,3.84,12.3,11.52v7.14c0,2.46,1.02,3.66,2.88,3.66.9,0,2.1-.48,2.94-.96.24-.12.78.54.54.78-1.26,1.08-3.18,1.86-5.64,1.86-4.92,0-8.1-2.58-8.1-7.26v-9c0-4.98-3.84-7.26-8.4-7.26h-5.4v20.7c0,.9.12,1.02,1.02,1.02h3.72c.24,0,.36.06.36.54s-.12.54-.36.54h-17.34c-.24,0-.36-.06-.36-.54s.12-.54.36-.54h4.2c.9,0,1.02-.12,1.02-1.02V10.05c0-.9-.12-1.02-1.02-1.02h-4.02c-.24,0-.36-.06-.36-.54s.12-.54.36-.54h17.4c10.08,0,15.06,4.14,15.06,10.32,0,5.58-4.32,9.36-11.16,10.26ZM451.32,11.01c-1.26-1.26-2.7-1.98-5.4-1.98h-3.54c-.9,0-1.02.12-1.02,1.02v18.12h4.14c2.88,0,4.26-.48,5.82-2.04,1.32-1.32,2.46-4.38,2.46-7.86s-1.14-5.94-2.46-7.26Z"/>
        <path class="cls-1" d="M471.66,50.97h4.2c.9,0,1.02-.12,1.02-1.02V10.05c0-.9-.12-1.02-1.02-1.02h-4.02c-.24,0-.36-.06-.36-.54s.12-.54.36-.54h17.46c.24,0,.36.06.36.54s-.12.54-.36.54h-4.02c-.9,0-1.02.12-1.02,1.02v39.9c0,.9.12,1.02,1.02,1.02h4.2c.24,0,.36.06.36.54s-.12.54-.36.54h-17.82c-.24,0-.36-.06-.36-.54,0-.42.12-.54.36-.54Z"/>
        <path class="cls-1" d="M532.02,52.05h-16.86c-.24,0-.36-.06-.36-.54s.12-.54.36-.54h4.62c.9,0,.96-.12.66-1.02l-4.68-13.44h-13.62l-1.2,3.6c-2.94,8.7-2.46,10.62,3.3,10.86.24,0,.36.06.36.54s-.12.54-.36.54h-12.3c-.24,0-.36-.06-.36-.54,0-.36.12-.54.48-.54,3.36-.24,4.62-1.68,7.8-11.16l10.68-31.8c.12-.3.36-.48.66-.48h1.56c.36,0,.48.12.6.48l14.64,41.94c.3.9.42,1.02,1.32,1.02h2.7c.24,0,.36.06.36.54s-.12.54-.36.54ZM502.44,35.43h12.96l-4.44-12.72c-.66-1.98-1.38-4.2-1.86-6.24h-.24l-6.42,18.96Z"/>
        <path class="cls-1" d="M564.12,25.35c.24-12.12,6.3-18.9,12-18.9,4.2,0,6.42,2.82,6.42,6.3,0,4.86-3.78,9.36-11.46,12,.48,11.1,3.42,19.44,7.86,23.52,3.24-2.58,5.4-6.66,5.4-11.94,0-4.8-.42-5.88-6.78-6.12-.24,0-.36-.06-.36-.54s.12-.54.36-.54h13.44c.24,0,.36.06.36.54,0,.42-.12.54-.36.54-4.86.24-5.52,1.2-5.52,5.94,0,5.46-1.98,9.9-5.64,12.78,1.74,1.38,3.72,2.1,5.88,2.1,3.78,0,6.36-2.52,7.8-6.24.12-.24,1.02.12.9.36-1.74,4.38-4.74,7.62-12.06,7.62-2.52,0-4.74-.54-6.72-1.44-2.46.96-5.34,1.44-8.58,1.44-10.5,0-15.48-6.24-15.48-13.08s3.24-11.64,12.54-14.34ZM574.38,50.67c-6.6-3.9-10.14-12.9-10.26-23.94-.9.36-1.68.96-2.46,1.74-1.56,1.56-3.18,5.16-3.18,11.16,0,3.66.84,6.9,3,9.06,1.86,1.86,4.5,2.82,7.68,2.82,1.8,0,3.6-.3,5.22-.84ZM571.02,23.61c6.18-2.04,10.38-5.94,10.38-10.74,0-3.06-1.86-5.1-4.2-5.1-2.94,0-6.18,3.66-6.18,13.74v2.1Z"/>
        <path class="cls-1" d="M636.3,7.95h16.68c.24,0,.36.06.36.54s-.12.54-.36.54h-4.68c-.9,0-.96.12-.66,1.02l8.04,26.28c.6,1.98,1.38,4.32,1.8,6.24h.24l6.78-22.68c2.58-8.7,2.46-10.62-3.48-10.86-.24,0-.36-.06-.36-.54s.12-.54.36-.54h12.3c.24,0,.36.06.36.54,0,.36-.12.54-.48.54-3.54.24-4.74,1.68-7.62,11.16l-9.66,31.8c-.12.3-.36.48-.66.48h-1.56c-.36,0-.48-.12-.6-.48l-10.32-33.9-10.32,33.9c-.12.3-.36.48-.66.48h-1.56c-.36,0-.48-.12-.6-.48l-12.78-41.94c-.3-.9-.42-1.02-1.32-1.02h-2.7c-.24,0-.36-.06-.36-.54s.12-.54.36-.54h16.68c.24,0,.36.06.36.54s-.12.54-.36.54h-4.68c-.9,0-.96.12-.66,1.02l8.04,26.28c.6,1.98,1.38,4.32,1.8,6.24h.24l7.98-26.22-1.92-6.3c-.3-.9-.42-1.02-1.32-1.02h-2.7c-.24,0-.36-.06-.36-.54s.12-.54.36-.54Z"/>
        <path class="cls-1" d="M675.72,50.97h4.2c.9,0,1.02-.12,1.02-1.02V10.05c0-.9-.12-1.02-1.02-1.02h-4.02c-.24,0-.36-.06-.36-.54s.12-.54.36-.54h17.46c.24,0,.36.06.36.54s-.12.54-.36.54h-4.02c-.9,0-1.02.12-1.02,1.02v39.9c0,.9.12,1.02,1.02,1.02h4.2c.24,0,.36.06.36.54s-.12.54-.36.54h-17.82c-.24,0-.36-.06-.36-.54,0-.42.12-.54.36-.54Z"/>
        <path class="cls-1" d="M696.48,50.97c4.92-.24,5.7-2.04,5.7-10.38V10.05c0-.9-.12-1.02-1.02-1.02h-4.14c-.24,0-.36-.06-.36-.54s.12-.54.36-.54h12.54c.54,0,.84.24,1.2.78l19.68,31.5h.24v-20.82c0-8.34-.72-10.14-6.72-10.38-.24,0-.36-.18-.36-.54,0-.48.12-.54.36-.54h13.62c.24,0,.36.06.36.54,0,.36-.12.54-.36.54-4.92.24-5.7,2.04-5.7,10.38v31.74c0,.48-.06.9-.66.9h-1.8c-.54,0-.84-.3-1.08-.72l-24.72-39.78h-.24v29.04c0,8.34.72,10.14,7.38,10.38.24,0,.36.18.36.54,0,.48-.12.54-.36.54h-14.28c-.24,0-.36-.06-.36-.54,0-.36.12-.54.36-.54Z"/>
        <path class="cls-1" d="M740.52,50.97h4.2c.9,0,1.02-.12,1.02-1.02V10.05c0-.9-.12-1.02-1.02-1.02h-4.02c-.24,0-.36-.06-.36-.54s.12-.54.36-.54h32.76c.84,0,1.02.24,1.02,1.08v10.56c0,.24-.12.36-.6.36-.3,0-.42-.12-.48-.42-1.08-7.38-4.8-10.5-10.5-10.5h-8.76c-.9,0-1.02.12-1.02,1.02v17.82h2.58c6.18,0,7.86-1.68,8.64-7.08.06-.3.18-.42.48-.42.48,0,.6.12.6.36v15.36c0,.24-.12.36-.6.36-.3,0-.42-.18-.48-.48-.78-5.4-2.46-7.02-8.64-7.02h-2.58v21c0,.9.12,1.02,1.02,1.02h8.04c7.56,0,10.86-4.02,12.24-13.26.06-.3.24-.42.54-.42.48,0,.54.12.54.36v13.32c0,.84-.18,1.08-1.02,1.08h-33.96c-.24,0-.36-.06-.36-.54s.12-.54.36-.54Z"/>
        <path class="cls-1" d="M818.82,28.05v.24c9.24.78,13.62,6.24,13.62,11.76,0,6.6-5.46,12-16.08,12h-19.44c-.24,0-.36-.06-.36-.54s.12-.54.36-.54h4.2c.9,0,1.02-.12,1.02-1.02V10.05c0-.9-.12-1.02-1.02-1.02h-4.02c-.24,0-.36-.06-.36-.54s.12-.54.36-.54h17.94c10.2,0,14.94,4.5,14.94,10.44,0,4.74-3.72,8.88-11.16,9.66ZM820.02,10.71c-1.14-1.14-2.64-1.68-4.98-1.68h-4.5c-.9,0-1.02.12-1.02,1.02v17.76h5.4c2.82,0,4.02-.66,5.28-1.92,1.38-1.38,2.16-3.9,2.16-7.5,0-3.78-.78-6.12-2.34-7.68ZM821.76,31.23c-1.62-1.5-3.96-2.34-6.78-2.34h-5.46v21.06c0,.9.12,1.02,1.02,1.02h5.82c2.22,0,4.2-.84,5.4-1.92,1.86-1.68,2.76-4.38,2.76-9,0-4.32-.78-6.96-2.76-8.82Z"/>
        <path class="cls-1" d="M875.76,52.05h-16.86c-.24,0-.36-.06-.36-.54s.12-.54.36-.54h4.62c.9,0,.96-.12.66-1.02l-4.68-13.44h-13.62l-1.2,3.6c-2.94,8.7-2.46,10.62,3.3,10.86.24,0,.36.06.36.54s-.12.54-.36.54h-12.3c-.24,0-.36-.06-.36-.54,0-.36.12-.54.48-.54,3.36-.24,4.62-1.68,7.8-11.16l10.68-31.8c.12-.3.36-.48.66-.48h1.56c.36,0,.48.12.6.48l14.64,41.94c.3.9.42,1.02,1.32,1.02h2.7c.24,0,.36.06.36.54s-.12.54-.36.54ZM846.18,35.43h12.96l-4.44-12.72c-.66-1.98-1.38-4.2-1.86-6.24h-.24l-6.42,18.96Z"/>
        <path class="cls-1" d="M899.7,28.53v.24c7.98.96,12.3,3.84,12.3,11.52v7.14c0,2.46,1.02,3.66,2.88,3.66.9,0,2.1-.48,2.94-.96.24-.12.78.54.54.78-1.26,1.08-3.18,1.86-5.64,1.86-4.92,0-8.1-2.58-8.1-7.26v-9c0-4.98-3.84-7.26-8.4-7.26h-5.4v20.7c0,.9.12,1.02,1.02,1.02h3.72c.24,0,.36.06.36.54s-.12.54-.36.54h-17.34c-.24,0-.36-.06-.36-.54s.12-.54.36-.54h4.2c.9,0,1.02-.12,1.02-1.02V10.05c0-.9-.12-1.02-1.02-1.02h-4.02c-.24,0-.36-.06-.36-.54s.12-.54.36-.54h17.4c10.08,0,15.06,4.14,15.06,10.32,0,5.58-4.32,9.36-11.16,10.26ZM900.78,11.01c-1.26-1.26-2.7-1.98-5.4-1.98h-3.54c-.9,0-1.02.12-1.02,1.02v18.12h4.14c2.88,0,4.26-.48,5.82-2.04,1.32-1.32,2.46-4.38,2.46-7.86s-1.14-5.94-2.46-7.26Z"/>
      </g>
      <g>
        <path class="cls-2" d="M889.63,127.25c7.48-29.53,22.19-46.33,30.56-55.64,6.88-7.66,9.34-8.55,10.45-7.78,1.2.84,1.36,4.04-1.1,13.8-3.09,12.24-5.49,21.79-13.16,35.22-9.26,16.21-24.6,35.3-28.65,32.41-2.25-1.61-.26-9.48,1.9-18.01Z"/>
        <path class="cls-4" d="M897.49,129.84c16.26-23.43,35.54-32.52,46.43-37.47,8.96-4.07,11.6-3.88,12.42-2.73.9,1.24.06,4.18-5.3,11.92-6.73,9.72-11.97,17.3-23.46,26.23-13.87,10.77-34.46,21.66-37.46,17.43-1.67-2.35,2.67-8.6,7.36-15.37Z"/>
      </g>
    </g>
  </g>
</svg>